# generated mesh
vt 0.03125 0.50000
vt 0.09375 0.50000
vt 0.15625 0.50000
vt 0.21875 0.50000
vt 0.28125 0.50000
vt 0.34375 0.50000
vt 0.40625 0.50000
vt 0.46875 0.50000
vt 0.53125 0.50000
vt 0.59375 0.50000
vt 0.65625 0.50000
vt 0.71875 0.50000
vt 0.78125 0.50000
vt 0.84375 0.50000
vt 0.90625 0.50000
vt 0.96875 0.50000
v -0.50000 -0.35000 0.90000
v 0.50000 -0.35000 0.90000
v 0.50000 0.10000 0.90000
vn 0.00000 0.00000 1.00000
v -0.50000 -0.35000 0.90000
v 0.50000 0.10000 0.90000
v -0.50000 0.10000 0.90000
vn 0.00000 0.00000 1.00000
v 0.50000 -0.35000 -0.90000
v -0.50000 -0.35000 -0.90000
v -0.50000 0.10000 -0.90000
vn 0.00000 0.00000 -1.00000
v 0.50000 -0.35000 -0.90000
v -0.50000 0.10000 -0.90000
v 0.50000 0.10000 -0.90000
vn 0.00000 0.00000 -1.00000
v 0.50000 -0.35000 0.90000
v 0.50000 -0.35000 -0.90000
v 0.50000 0.10000 -0.90000
vn 1.00000 0.00000 0.00000
v 0.50000 -0.35000 0.90000
v 0.50000 0.10000 -0.90000
v 0.50000 0.10000 0.90000
vn 1.00000 0.00000 0.00000
v -0.50000 -0.35000 -0.90000
v -0.50000 -0.35000 0.90000
v -0.50000 0.10000 0.90000
vn -1.00000 0.00000 0.00000
v -0.50000 -0.35000 -0.90000
v -0.50000 0.10000 0.90000
v -0.50000 0.10000 -0.90000
vn -1.00000 0.00000 0.00000
v -0.50000 0.10000 0.90000
v 0.50000 0.10000 0.90000
v 0.50000 0.10000 -0.90000
vn 0.00000 1.00000 0.00000
v -0.50000 0.10000 0.90000
v 0.50000 0.10000 -0.90000
v -0.50000 0.10000 -0.90000
vn 0.00000 1.00000 0.00000
v -0.50000 -0.35000 -0.90000
v 0.50000 -0.35000 -0.90000
v 0.50000 -0.35000 0.90000
vn 0.00000 -1.00000 0.00000
v -0.50000 -0.35000 -0.90000
v 0.50000 -0.35000 0.90000
v -0.50000 -0.35000 0.90000
vn 0.00000 -1.00000 0.00000
v -0.42000 0.10000 0.55000
v 0.42000 0.10000 0.55000
v 0.42000 0.42000 0.55000
vn 0.00000 0.00000 1.00000
v -0.42000 0.10000 0.55000
v 0.42000 0.42000 0.55000
v -0.42000 0.42000 0.55000
vn 0.00000 0.00000 1.00000
v 0.42000 0.10000 -0.15000
v -0.42000 0.10000 -0.15000
v -0.42000 0.42000 -0.15000
vn 0.00000 0.00000 -1.00000
v 0.42000 0.10000 -0.15000
v -0.42000 0.42000 -0.15000
v 0.42000 0.42000 -0.15000
vn 0.00000 0.00000 -1.00000
v 0.42000 0.10000 0.55000
v 0.42000 0.10000 -0.15000
v 0.42000 0.42000 -0.15000
vn 1.00000 0.00000 0.00000
v 0.42000 0.10000 0.55000
v 0.42000 0.42000 -0.15000
v 0.42000 0.42000 0.55000
vn 1.00000 0.00000 0.00000
v -0.42000 0.10000 -0.15000
v -0.42000 0.10000 0.55000
v -0.42000 0.42000 0.55000
vn -1.00000 0.00000 0.00000
v -0.42000 0.10000 -0.15000
v -0.42000 0.42000 0.55000
v -0.42000 0.42000 -0.15000
vn -1.00000 0.00000 0.00000
v -0.42000 0.42000 0.55000
v 0.42000 0.42000 0.55000
v 0.42000 0.42000 -0.15000
vn 0.00000 1.00000 0.00000
v -0.42000 0.42000 0.55000
v 0.42000 0.42000 -0.15000
v -0.42000 0.42000 -0.15000
vn 0.00000 1.00000 0.00000
v -0.42000 0.10000 -0.15000
v 0.42000 0.10000 -0.15000
v 0.42000 0.10000 0.55000
vn 0.00000 -1.00000 0.00000
v -0.42000 0.10000 -0.15000
v 0.42000 0.10000 0.55000
v -0.42000 0.10000 0.55000
vn 0.00000 -1.00000 0.00000
v 0.44000 -0.14000 0.55000
v 0.60000 -0.15370 0.61888
v 0.60000 -0.14000 0.61888
vn 0.00000 0.96194 0.19134
v 0.44000 -0.14000 0.55000
v 0.44000 -0.15370 0.55000
v 0.60000 -0.15370 0.61888
vn 0.00000 0.96194 0.19134
v 0.60000 -0.32000 0.55000
v 0.60000 -0.14000 0.61888
v 0.60000 -0.15370 0.61888
vn 1.00000 0.00000 0.00000
v 0.44000 -0.32000 0.55000
v 0.44000 -0.15370 0.61888
v 0.44000 -0.14000 0.55000
vn -1.00000 0.00000 0.00000
v 0.44000 -0.15370 0.61888
v 0.60000 -0.19272 0.67728
v 0.60000 -0.15370 0.67728
vn 0.00000 0.81549 0.54490
v 0.44000 -0.15370 0.61888
v 0.44000 -0.19272 0.61888
v 0.60000 -0.19272 0.67728
vn 0.00000 0.81549 0.54490
v 0.60000 -0.32000 0.55000
v 0.60000 -0.15370 0.67728
v 0.60000 -0.19272 0.67728
vn 1.00000 0.00000 0.00000
v 0.44000 -0.32000 0.55000
v 0.44000 -0.19272 0.67728
v 0.44000 -0.15370 0.61888
vn -1.00000 0.00000 0.00000
v 0.44000 -0.19272 0.67728
v 0.60000 -0.25112 0.71630
v 0.60000 -0.19272 0.71630
vn 0.00000 0.54490 0.81549
v 0.44000 -0.19272 0.67728
v 0.44000 -0.25112 0.67728
v 0.60000 -0.25112 0.71630
vn 0.00000 0.54490 0.81549
v 0.60000 -0.32000 0.55000
v 0.60000 -0.19272 0.71630
v 0.60000 -0.25112 0.71630
vn 1.00000 0.00000 0.00000
v 0.44000 -0.32000 0.55000
v 0.44000 -0.25112 0.71630
v 0.44000 -0.19272 0.67728
vn -1.00000 0.00000 0.00000
v 0.44000 -0.25112 0.71630
v 0.60000 -0.32000 0.73000
v 0.60000 -0.25112 0.73000
vn 0.00000 0.19134 0.96194
v 0.44000 -0.25112 0.71630
v 0.44000 -0.32000 0.71630
v 0.60000 -0.32000 0.73000
vn 0.00000 0.19134 0.96194
v 0.60000 -0.32000 0.55000
v 0.60000 -0.25112 0.73000
v 0.60000 -0.32000 0.73000
vn 1.00000 0.00000 0.00000
v 0.44000 -0.32000 0.55000
v 0.44000 -0.32000 0.73000
v 0.44000 -0.25112 0.71630
vn -1.00000 0.00000 0.00000
v 0.44000 -0.32000 0.73000
v 0.60000 -0.38888 0.71630
v 0.60000 -0.32000 0.71630
vn 0.00000 -0.19134 0.96194
v 0.44000 -0.32000 0.73000
v 0.44000 -0.38888 0.73000
v 0.60000 -0.38888 0.71630
vn 0.00000 -0.19134 0.96194
v 0.60000 -0.32000 0.55000
v 0.60000 -0.32000 0.71630
v 0.60000 -0.38888 0.71630
vn 1.00000 0.00000 0.00000
v 0.44000 -0.32000 0.55000
v 0.44000 -0.38888 0.71630
v 0.44000 -0.32000 0.73000
vn -1.00000 0.00000 0.00000
v 0.44000 -0.38888 0.71630
v 0.60000 -0.44728 0.67728
v 0.60000 -0.38888 0.67728
vn 0.00000 -0.54490 0.81549
v 0.44000 -0.38888 0.71630
v 0.44000 -0.44728 0.71630
v 0.60000 -0.44728 0.67728
vn 0.00000 -0.54490 0.81549
v 0.60000 -0.32000 0.55000
v 0.60000 -0.38888 0.67728
v 0.60000 -0.44728 0.67728
vn 1.00000 0.00000 0.00000
v 0.44000 -0.32000 0.55000
v 0.44000 -0.44728 0.67728
v 0.44000 -0.38888 0.71630
vn -1.00000 0.00000 0.00000
v 0.44000 -0.44728 0.67728
v 0.60000 -0.48630 0.61888
v 0.60000 -0.44728 0.61888
vn 0.00000 -0.81549 0.54490
v 0.44000 -0.44728 0.67728
v 0.44000 -0.48630 0.67728
v 0.60000 -0.48630 0.61888
vn 0.00000 -0.81549 0.54490
v 0.60000 -0.32000 0.55000
v 0.60000 -0.44728 0.61888
v 0.60000 -0.48630 0.61888
vn 1.00000 0.00000 0.00000
v 0.44000 -0.32000 0.55000
v 0.44000 -0.48630 0.61888
v 0.44000 -0.44728 0.67728
vn -1.00000 0.00000 0.00000
v 0.44000 -0.48630 0.61888
v 0.60000 -0.50000 0.55000
v 0.60000 -0.48630 0.55000
vn 0.00000 -0.96194 0.19134
v 0.44000 -0.48630 0.61888
v 0.44000 -0.50000 0.61888
v 0.60000 -0.50000 0.55000
vn 0.00000 -0.96194 0.19134
v 0.60000 -0.32000 0.55000
v 0.60000 -0.48630 0.55000
v 0.60000 -0.50000 0.55000
vn 1.00000 0.00000 0.00000
v 0.44000 -0.32000 0.55000
v 0.44000 -0.50000 0.55000
v 0.44000 -0.48630 0.61888
vn -1.00000 0.00000 0.00000
v 0.44000 -0.50000 0.55000
v 0.60000 -0.48630 0.48112
v 0.60000 -0.50000 0.48112
vn 0.00000 -0.96194 -0.19134
v 0.44000 -0.50000 0.55000
v 0.44000 -0.48630 0.55000
v 0.60000 -0.48630 0.48112
vn 0.00000 -0.96194 -0.19134
v 0.60000 -0.32000 0.55000
v 0.60000 -0.50000 0.48112
v 0.60000 -0.48630 0.48112
vn 1.00000 0.00000 0.00000
v 0.44000 -0.32000 0.55000
v 0.44000 -0.48630 0.48112
v 0.44000 -0.50000 0.55000
vn -1.00000 0.00000 0.00000
v 0.44000 -0.48630 0.48112
v 0.60000 -0.44728 0.42272
v 0.60000 -0.48630 0.42272
vn 0.00000 -0.81549 -0.54490
v 0.44000 -0.48630 0.48112
v 0.44000 -0.44728 0.48112
v 0.60000 -0.44728 0.42272
vn 0.00000 -0.81549 -0.54490
v 0.60000 -0.32000 0.55000
v 0.60000 -0.48630 0.42272
v 0.60000 -0.44728 0.42272
vn 1.00000 0.00000 0.00000
v 0.44000 -0.32000 0.55000
v 0.44000 -0.44728 0.42272
v 0.44000 -0.48630 0.48112
vn -1.00000 0.00000 0.00000
v 0.44000 -0.44728 0.42272
v 0.60000 -0.38888 0.38370
v 0.60000 -0.44728 0.38370
vn 0.00000 -0.54490 -0.81549
v 0.44000 -0.44728 0.42272
v 0.44000 -0.38888 0.42272
v 0.60000 -0.38888 0.38370
vn 0.00000 -0.54490 -0.81549
v 0.60000 -0.32000 0.55000
v 0.60000 -0.44728 0.38370
v 0.60000 -0.38888 0.38370
vn 1.00000 0.00000 0.00000
v 0.44000 -0.32000 0.55000
v 0.44000 -0.38888 0.38370
v 0.44000 -0.44728 0.42272
vn -1.00000 0.00000 0.00000
v 0.44000 -0.38888 0.38370
v 0.60000 -0.32000 0.37000
v 0.60000 -0.38888 0.37000
vn 0.00000 -0.19134 -0.96194
v 0.44000 -0.38888 0.38370
v 0.44000 -0.32000 0.38370
v 0.60000 -0.32000 0.37000
vn 0.00000 -0.19134 -0.96194
v 0.60000 -0.32000 0.55000
v 0.60000 -0.38888 0.37000
v 0.60000 -0.32000 0.37000
vn 1.00000 0.00000 0.00000
v 0.44000 -0.32000 0.55000
v 0.44000 -0.32000 0.37000
v 0.44000 -0.38888 0.38370
vn -1.00000 0.00000 0.00000
v 0.44000 -0.32000 0.37000
v 0.60000 -0.25112 0.38370
v 0.60000 -0.32000 0.38370
vn 0.00000 0.19134 -0.96194
v 0.44000 -0.32000 0.37000
v 0.44000 -0.25112 0.37000
v 0.60000 -0.25112 0.38370
vn 0.00000 0.19134 -0.96194
v 0.60000 -0.32000 0.55000
v 0.60000 -0.32000 0.38370
v 0.60000 -0.25112 0.38370
vn 1.00000 0.00000 0.00000
v 0.44000 -0.32000 0.55000
v 0.44000 -0.25112 0.38370
v 0.44000 -0.32000 0.37000
vn -1.00000 0.00000 0.00000
v 0.44000 -0.25112 0.38370
v 0.60000 -0.19272 0.42272
v 0.60000 -0.25112 0.42272
vn 0.00000 0.54490 -0.81549
v 0.44000 -0.25112 0.38370
v 0.44000 -0.19272 0.38370
v 0.60000 -0.19272 0.42272
vn 0.00000 0.54490 -0.81549
v 0.60000 -0.32000 0.55000
v 0.60000 -0.25112 0.42272
v 0.60000 -0.19272 0.42272
vn 1.00000 0.00000 0.00000
v 0.44000 -0.32000 0.55000
v 0.44000 -0.19272 0.42272
v 0.44000 -0.25112 0.38370
vn -1.00000 0.00000 0.00000
v 0.44000 -0.19272 0.42272
v 0.60000 -0.15370 0.48112
v 0.60000 -0.19272 0.48112
vn 0.00000 0.81549 -0.54490
v 0.44000 -0.19272 0.42272
v 0.44000 -0.15370 0.42272
v 0.60000 -0.15370 0.48112
vn 0.00000 0.81549 -0.54490
v 0.60000 -0.32000 0.55000
v 0.60000 -0.19272 0.48112
v 0.60000 -0.15370 0.48112
vn 1.00000 0.00000 0.00000
v 0.44000 -0.32000 0.55000
v 0.44000 -0.15370 0.48112
v 0.44000 -0.19272 0.42272
vn -1.00000 0.00000 0.00000
v 0.44000 -0.15370 0.48112
v 0.60000 -0.14000 0.55000
v 0.60000 -0.15370 0.55000
vn 0.00000 0.96194 -0.19134
v 0.44000 -0.15370 0.48112
v 0.44000 -0.14000 0.48112
v 0.60000 -0.14000 0.55000
vn 0.00000 0.96194 -0.19134
v 0.60000 -0.32000 0.55000
v 0.60000 -0.15370 0.55000
v 0.60000 -0.14000 0.55000
vn 1.00000 0.00000 0.00000
v 0.44000 -0.32000 0.55000
v 0.44000 -0.14000 0.55000
v 0.44000 -0.15370 0.48112
vn -1.00000 0.00000 0.00000
v -0.60000 -0.14000 0.55000
v -0.44000 -0.15370 0.61888
v -0.44000 -0.14000 0.61888
vn 0.00000 0.96194 0.19134
v -0.60000 -0.14000 0.55000
v -0.60000 -0.15370 0.55000
v -0.44000 -0.15370 0.61888
vn 0.00000 0.96194 0.19134
v -0.44000 -0.32000 0.55000
v -0.44000 -0.14000 0.61888
v -0.44000 -0.15370 0.61888
vn 1.00000 0.00000 0.00000
v -0.60000 -0.32000 0.55000
v -0.60000 -0.15370 0.61888
v -0.60000 -0.14000 0.55000
vn -1.00000 0.00000 0.00000
v -0.60000 -0.15370 0.61888
v -0.44000 -0.19272 0.67728
v -0.44000 -0.15370 0.67728
vn 0.00000 0.81549 0.54490
v -0.60000 -0.15370 0.61888
v -0.60000 -0.19272 0.61888
v -0.44000 -0.19272 0.67728
vn 0.00000 0.81549 0.54490
v -0.44000 -0.32000 0.55000
v -0.44000 -0.15370 0.67728
v -0.44000 -0.19272 0.67728
vn 1.00000 0.00000 0.00000
v -0.60000 -0.32000 0.55000
v -0.60000 -0.19272 0.67728
v -0.60000 -0.15370 0.61888
vn -1.00000 0.00000 0.00000
v -0.60000 -0.19272 0.67728
v -0.44000 -0.25112 0.71630
v -0.44000 -0.19272 0.71630
vn 0.00000 0.54490 0.81549
v -0.60000 -0.19272 0.67728
v -0.60000 -0.25112 0.67728
v -0.44000 -0.25112 0.71630
vn 0.00000 0.54490 0.81549
v -0.44000 -0.32000 0.55000
v -0.44000 -0.19272 0.71630
v -0.44000 -0.25112 0.71630
vn 1.00000 0.00000 0.00000
v -0.60000 -0.32000 0.55000
v -0.60000 -0.25112 0.71630
v -0.60000 -0.19272 0.67728
vn -1.00000 0.00000 0.00000
v -0.60000 -0.25112 0.71630
v -0.44000 -0.32000 0.73000
v -0.44000 -0.25112 0.73000
vn 0.00000 0.19134 0.96194
v -0.60000 -0.25112 0.71630
v -0.60000 -0.32000 0.71630
v -0.44000 -0.32000 0.73000
vn 0.00000 0.19134 0.96194
v -0.44000 -0.32000 0.55000
v -0.44000 -0.25112 0.73000
v -0.44000 -0.32000 0.73000
vn 1.00000 0.00000 0.00000
v -0.60000 -0.32000 0.55000
v -0.60000 -0.32000 0.73000
v -0.60000 -0.25112 0.71630
vn -1.00000 0.00000 0.00000
v -0.60000 -0.32000 0.73000
v -0.44000 -0.38888 0.71630
v -0.44000 -0.32000 0.71630
vn 0.00000 -0.19134 0.96194
v -0.60000 -0.32000 0.73000
v -0.60000 -0.38888 0.73000
v -0.44000 -0.38888 0.71630
vn 0.00000 -0.19134 0.96194
v -0.44000 -0.32000 0.55000
v -0.44000 -0.32000 0.71630
v -0.44000 -0.38888 0.71630
vn 1.00000 0.00000 0.00000
v -0.60000 -0.32000 0.55000
v -0.60000 -0.38888 0.71630
v -0.60000 -0.32000 0.73000
vn -1.00000 0.00000 0.00000
v -0.60000 -0.38888 0.71630
v -0.44000 -0.44728 0.67728
v -0.44000 -0.38888 0.67728
vn 0.00000 -0.54490 0.81549
v -0.60000 -0.38888 0.71630
v -0.60000 -0.44728 0.71630
v -0.44000 -0.44728 0.67728
vn 0.00000 -0.54490 0.81549
v -0.44000 -0.32000 0.55000
v -0.44000 -0.38888 0.67728
v -0.44000 -0.44728 0.67728
vn 1.00000 0.00000 0.00000
v -0.60000 -0.32000 0.55000
v -0.60000 -0.44728 0.67728
v -0.60000 -0.38888 0.71630
vn -1.00000 0.00000 0.00000
v -0.60000 -0.44728 0.67728
v -0.44000 -0.48630 0.61888
v -0.44000 -0.44728 0.61888
vn 0.00000 -0.81549 0.54490
v -0.60000 -0.44728 0.67728
v -0.60000 -0.48630 0.67728
v -0.44000 -0.48630 0.61888
vn 0.00000 -0.81549 0.54490
v -0.44000 -0.32000 0.55000
v -0.44000 -0.44728 0.61888
v -0.44000 -0.48630 0.61888
vn 1.00000 0.00000 0.00000
v -0.60000 -0.32000 0.55000
v -0.60000 -0.48630 0.61888
v -0.60000 -0.44728 0.67728
vn -1.00000 0.00000 0.00000
v -0.60000 -0.48630 0.61888
v -0.44000 -0.50000 0.55000
v -0.44000 -0.48630 0.55000
vn 0.00000 -0.96194 0.19134
v -0.60000 -0.48630 0.61888
v -0.60000 -0.50000 0.61888
v -0.44000 -0.50000 0.55000
vn 0.00000 -0.96194 0.19134
v -0.44000 -0.32000 0.55000
v -0.44000 -0.48630 0.55000
v -0.44000 -0.50000 0.55000
vn 1.00000 0.00000 0.00000
v -0.60000 -0.32000 0.55000
v -0.60000 -0.50000 0.55000
v -0.60000 -0.48630 0.61888
vn -1.00000 0.00000 0.00000
v -0.60000 -0.50000 0.55000
v -0.44000 -0.48630 0.48112
v -0.44000 -0.50000 0.48112
vn 0.00000 -0.96194 -0.19134
v -0.60000 -0.50000 0.55000
v -0.60000 -0.48630 0.55000
v -0.44000 -0.48630 0.48112
vn 0.00000 -0.96194 -0.19134
v -0.44000 -0.32000 0.55000
v -0.44000 -0.50000 0.48112
v -0.44000 -0.48630 0.48112
vn 1.00000 0.00000 0.00000
v -0.60000 -0.32000 0.55000
v -0.60000 -0.48630 0.48112
v -0.60000 -0.50000 0.55000
vn -1.00000 0.00000 0.00000
v -0.60000 -0.48630 0.48112
v -0.44000 -0.44728 0.42272
v -0.44000 -0.48630 0.42272
vn 0.00000 -0.81549 -0.54490
v -0.60000 -0.48630 0.48112
v -0.60000 -0.44728 0.48112
v -0.44000 -0.44728 0.42272
vn 0.00000 -0.81549 -0.54490
v -0.44000 -0.32000 0.55000
v -0.44000 -0.48630 0.42272
v -0.44000 -0.44728 0.42272
vn 1.00000 0.00000 0.00000
v -0.60000 -0.32000 0.55000
v -0.60000 -0.44728 0.42272
v -0.60000 -0.48630 0.48112
vn -1.00000 0.00000 0.00000
v -0.60000 -0.44728 0.42272
v -0.44000 -0.38888 0.38370
v -0.44000 -0.44728 0.38370
vn 0.00000 -0.54490 -0.81549
v -0.60000 -0.44728 0.42272
v -0.60000 -0.38888 0.42272
v -0.44000 -0.38888 0.38370
vn 0.00000 -0.54490 -0.81549
v -0.44000 -0.32000 0.55000
v -0.44000 -0.44728 0.38370
v -0.44000 -0.38888 0.38370
vn 1.00000 0.00000 0.00000
v -0.60000 -0.32000 0.55000
v -0.60000 -0.38888 0.38370
v -0.60000 -0.44728 0.42272
vn -1.00000 0.00000 0.00000
v -0.60000 -0.38888 0.38370
v -0.44000 -0.32000 0.37000
v -0.44000 -0.38888 0.37000
vn 0.00000 -0.19134 -0.96194
v -0.60000 -0.38888 0.38370
v -0.60000 -0.32000 0.38370
v -0.44000 -0.32000 0.37000
vn 0.00000 -0.19134 -0.96194
v -0.44000 -0.32000 0.55000
v -0.44000 -0.38888 0.37000
v -0.44000 -0.32000 0.37000
vn 1.00000 0.00000 0.00000
v -0.60000 -0.32000 0.55000
v -0.60000 -0.32000 0.37000
v -0.60000 -0.38888 0.38370
vn -1.00000 0.00000 0.00000
v -0.60000 -0.32000 0.37000
v -0.44000 -0.25112 0.38370
v -0.44000 -0.32000 0.38370
vn 0.00000 0.19134 -0.96194
v -0.60000 -0.32000 0.37000
v -0.60000 -0.25112 0.37000
v -0.44000 -0.25112 0.38370
vn 0.00000 0.19134 -0.96194
v -0.44000 -0.32000 0.55000
v -0.44000 -0.32000 0.38370
v -0.44000 -0.25112 0.38370
vn 1.00000 0.00000 0.00000
v -0.60000 -0.32000 0.55000
v -0.60000 -0.25112 0.38370
v -0.60000 -0.32000 0.37000
vn -1.00000 0.00000 0.00000
v -0.60000 -0.25112 0.38370
v -0.44000 -0.19272 0.42272
v -0.44000 -0.25112 0.42272
vn 0.00000 0.54490 -0.81549
v -0.60000 -0.25112 0.38370
v -0.60000 -0.19272 0.38370
v -0.44000 -0.19272 0.42272
vn 0.00000 0.54490 -0.81549
v -0.44000 -0.32000 0.55000
v -0.44000 -0.25112 0.42272
v -0.44000 -0.19272 0.42272
vn 1.00000 0.00000 0.00000
v -0.60000 -0.32000 0.55000
v -0.60000 -0.19272 0.42272
v -0.60000 -0.25112 0.38370
vn -1.00000 0.00000 0.00000
v -0.60000 -0.19272 0.42272
v -0.44000 -0.15370 0.48112
v -0.44000 -0.19272 0.48112
vn 0.00000 0.81549 -0.54490
v -0.60000 -0.19272 0.42272
v -0.60000 -0.15370 0.42272
v -0.44000 -0.15370 0.48112
vn 0.00000 0.81549 -0.54490
v -0.44000 -0.32000 0.55000
v -0.44000 -0.19272 0.48112
v -0.44000 -0.15370 0.48112
vn 1.00000 0.00000 0.00000
v -0.60000 -0.32000 0.55000
v -0.60000 -0.15370 0.48112
v -0.60000 -0.19272 0.42272
vn -1.00000 0.00000 0.00000
v -0.60000 -0.15370 0.48112
v -0.44000 -0.14000 0.55000
v -0.44000 -0.15370 0.55000
vn 0.00000 0.96194 -0.19134
v -0.60000 -0.15370 0.48112
v -0.60000 -0.14000 0.48112
v -0.44000 -0.14000 0.55000
vn 0.00000 0.96194 -0.19134
v -0.44000 -0.32000 0.55000
v -0.44000 -0.15370 0.55000
v -0.44000 -0.14000 0.55000
vn 1.00000 0.00000 0.00000
v -0.60000 -0.32000 0.55000
v -0.60000 -0.14000 0.55000
v -0.60000 -0.15370 0.48112
vn -1.00000 0.00000 0.00000
v 0.44000 -0.14000 -0.55000
v 0.60000 -0.15370 -0.48112
v 0.60000 -0.14000 -0.48112
vn 0.00000 0.96194 0.19134
v 0.44000 -0.14000 -0.55000
v 0.44000 -0.15370 -0.55000
v 0.60000 -0.15370 -0.48112
vn 0.00000 0.96194 0.19134
v 0.60000 -0.32000 -0.55000
v 0.60000 -0.14000 -0.48112
v 0.60000 -0.15370 -0.48112
vn 1.00000 0.00000 0.00000
v 0.44000 -0.32000 -0.55000
v 0.44000 -0.15370 -0.48112
v 0.44000 -0.14000 -0.55000
vn -1.00000 0.00000 0.00000
v 0.44000 -0.15370 -0.48112
v 0.60000 -0.19272 -0.42272
v 0.60000 -0.15370 -0.42272
vn 0.00000 0.81549 0.54490
v 0.44000 -0.15370 -0.48112
v 0.44000 -0.19272 -0.48112
v 0.60000 -0.19272 -0.42272
vn 0.00000 0.81549 0.54490
v 0.60000 -0.32000 -0.55000
v 0.60000 -0.15370 -0.42272
v 0.60000 -0.19272 -0.42272
vn 1.00000 0.00000 0.00000
v 0.44000 -0.32000 -0.55000
v 0.44000 -0.19272 -0.42272
v 0.44000 -0.15370 -0.48112
vn -1.00000 0.00000 0.00000
v 0.44000 -0.19272 -0.42272
v 0.60000 -0.25112 -0.38370
v 0.60000 -0.19272 -0.38370
vn 0.00000 0.54490 0.81549
v 0.44000 -0.19272 -0.42272
v 0.44000 -0.25112 -0.42272
v 0.60000 -0.25112 -0.38370
vn 0.00000 0.54490 0.81549
v 0.60000 -0.32000 -0.55000
v 0.60000 -0.19272 -0.38370
v 0.60000 -0.25112 -0.38370
vn 1.00000 0.00000 0.00000
v 0.44000 -0.32000 -0.55000
v 0.44000 -0.25112 -0.38370
v 0.44000 -0.19272 -0.42272
vn -1.00000 0.00000 0.00000
v 0.44000 -0.25112 -0.38370
v 0.60000 -0.32000 -0.37000
v 0.60000 -0.25112 -0.37000
vn 0.00000 0.19134 0.96194
v 0.44000 -0.25112 -0.38370
v 0.44000 -0.32000 -0.38370
v 0.60000 -0.32000 -0.37000
vn 0.00000 0.19134 0.96194
v 0.60000 -0.32000 -0.55000
v 0.60000 -0.25112 -0.37000
v 0.60000 -0.32000 -0.37000
vn 1.00000 0.00000 0.00000
v 0.44000 -0.32000 -0.55000
v 0.44000 -0.32000 -0.37000
v 0.44000 -0.25112 -0.38370
vn -1.00000 0.00000 0.00000
v 0.44000 -0.32000 -0.37000
v 0.60000 -0.38888 -0.38370
v 0.60000 -0.32000 -0.38370
vn 0.00000 -0.19134 0.96194
v 0.44000 -0.32000 -0.37000
v 0.44000 -0.38888 -0.37000
v 0.60000 -0.38888 -0.38370
vn 0.00000 -0.19134 0.96194
v 0.60000 -0.32000 -0.55000
v 0.60000 -0.32000 -0.38370
v 0.60000 -0.38888 -0.38370
vn 1.00000 0.00000 0.00000
v 0.44000 -0.32000 -0.55000
v 0.44000 -0.38888 -0.38370
v 0.44000 -0.32000 -0.37000
vn -1.00000 0.00000 0.00000
v 0.44000 -0.38888 -0.38370
v 0.60000 -0.44728 -0.42272
v 0.60000 -0.38888 -0.42272
vn 0.00000 -0.54490 0.81549
v 0.44000 -0.38888 -0.38370
v 0.44000 -0.44728 -0.38370
v 0.60000 -0.44728 -0.42272
vn 0.00000 -0.54490 0.81549
v 0.60000 -0.32000 -0.55000
v 0.60000 -0.38888 -0.42272
v 0.60000 -0.44728 -0.42272
vn 1.00000 0.00000 0.00000
v 0.44000 -0.32000 -0.55000
v 0.44000 -0.44728 -0.42272
v 0.44000 -0.38888 -0.38370
vn -1.00000 0.00000 0.00000
v 0.44000 -0.44728 -0.42272
v 0.60000 -0.48630 -0.48112
v 0.60000 -0.44728 -0.48112
vn 0.00000 -0.81549 0.54490
v 0.44000 -0.44728 -0.42272
v 0.44000 -0.48630 -0.42272
v 0.60000 -0.48630 -0.48112
vn 0.00000 -0.81549 0.54490
v 0.60000 -0.32000 -0.55000
v 0.60000 -0.44728 -0.48112
v 0.60000 -0.48630 -0.48112
vn 1.00000 0.00000 0.00000
v 0.44000 -0.32000 -0.55000
v 0.44000 -0.48630 -0.48112
v 0.44000 -0.44728 -0.42272
vn -1.00000 0.00000 0.00000
v 0.44000 -0.48630 -0.48112
v 0.60000 -0.50000 -0.55000
v 0.60000 -0.48630 -0.55000
vn 0.00000 -0.96194 0.19134
v 0.44000 -0.48630 -0.48112
v 0.44000 -0.50000 -0.48112
v 0.60000 -0.50000 -0.55000
vn 0.00000 -0.96194 0.19134
v 0.60000 -0.32000 -0.55000
v 0.60000 -0.48630 -0.55000
v 0.60000 -0.50000 -0.55000
vn 1.00000 0.00000 0.00000
v 0.44000 -0.32000 -0.55000
v 0.44000 -0.50000 -0.55000
v 0.44000 -0.48630 -0.48112
vn -1.00000 0.00000 0.00000
v 0.44000 -0.50000 -0.55000
v 0.60000 -0.48630 -0.61888
v 0.60000 -0.50000 -0.61888
vn 0.00000 -0.96194 -0.19134
v 0.44000 -0.50000 -0.55000
v 0.44000 -0.48630 -0.55000
v 0.60000 -0.48630 -0.61888
vn 0.00000 -0.96194 -0.19134
v 0.60000 -0.32000 -0.55000
v 0.60000 -0.50000 -0.61888
v 0.60000 -0.48630 -0.61888
vn 1.00000 0.00000 0.00000
v 0.44000 -0.32000 -0.55000
v 0.44000 -0.48630 -0.61888
v 0.44000 -0.50000 -0.55000
vn -1.00000 0.00000 0.00000
v 0.44000 -0.48630 -0.61888
v 0.60000 -0.44728 -0.67728
v 0.60000 -0.48630 -0.67728
vn 0.00000 -0.81549 -0.54490
v 0.44000 -0.48630 -0.61888
v 0.44000 -0.44728 -0.61888
v 0.60000 -0.44728 -0.67728
vn 0.00000 -0.81549 -0.54490
v 0.60000 -0.32000 -0.55000
v 0.60000 -0.48630 -0.67728
v 0.60000 -0.44728 -0.67728
vn 1.00000 0.00000 0.00000
v 0.44000 -0.32000 -0.55000
v 0.44000 -0.44728 -0.67728
v 0.44000 -0.48630 -0.61888
vn -1.00000 0.00000 0.00000
v 0.44000 -0.44728 -0.67728
v 0.60000 -0.38888 -0.71630
v 0.60000 -0.44728 -0.71630
vn 0.00000 -0.54490 -0.81549
v 0.44000 -0.44728 -0.67728
v 0.44000 -0.38888 -0.67728
v 0.60000 -0.38888 -0.71630
vn 0.00000 -0.54490 -0.81549
v 0.60000 -0.32000 -0.55000
v 0.60000 -0.44728 -0.71630
v 0.60000 -0.38888 -0.71630
vn 1.00000 0.00000 0.00000
v 0.44000 -0.32000 -0.55000
v 0.44000 -0.38888 -0.71630
v 0.44000 -0.44728 -0.67728
vn -1.00000 0.00000 0.00000
v 0.44000 -0.38888 -0.71630
v 0.60000 -0.32000 -0.73000
v 0.60000 -0.38888 -0.73000
vn 0.00000 -0.19134 -0.96194
v 0.44000 -0.38888 -0.71630
v 0.44000 -0.32000 -0.71630
v 0.60000 -0.32000 -0.73000
vn 0.00000 -0.19134 -0.96194
v 0.60000 -0.32000 -0.55000
v 0.60000 -0.38888 -0.73000
v 0.60000 -0.32000 -0.73000
vn 1.00000 0.00000 0.00000
v 0.44000 -0.32000 -0.55000
v 0.44000 -0.32000 -0.73000
v 0.44000 -0.38888 -0.71630
vn -1.00000 0.00000 0.00000
v 0.44000 -0.32000 -0.73000
v 0.60000 -0.25112 -0.71630
v 0.60000 -0.32000 -0.71630
vn 0.00000 0.19134 -0.96194
v 0.44000 -0.32000 -0.73000
v 0.44000 -0.25112 -0.73000
v 0.60000 -0.25112 -0.71630
vn 0.00000 0.19134 -0.96194
v 0.60000 -0.32000 -0.55000
v 0.60000 -0.32000 -0.71630
v 0.60000 -0.25112 -0.71630
vn 1.00000 0.00000 0.00000
v 0.44000 -0.32000 -0.55000
v 0.44000 -0.25112 -0.71630
v 0.44000 -0.32000 -0.73000
vn -1.00000 0.00000 0.00000
v 0.44000 -0.25112 -0.71630
v 0.60000 -0.19272 -0.67728
v 0.60000 -0.25112 -0.67728
vn 0.00000 0.54490 -0.81549
v 0.44000 -0.25112 -0.71630
v 0.44000 -0.19272 -0.71630
v 0.60000 -0.19272 -0.67728
vn 0.00000 0.54490 -0.81549
v 0.60000 -0.32000 -0.55000
v 0.60000 -0.25112 -0.67728
v 0.60000 -0.19272 -0.67728
vn 1.00000 0.00000 0.00000
v 0.44000 -0.32000 -0.55000
v 0.44000 -0.19272 -0.67728
v 0.44000 -0.25112 -0.71630
vn -1.00000 0.00000 0.00000
v 0.44000 -0.19272 -0.67728
v 0.60000 -0.15370 -0.61888
v 0.60000 -0.19272 -0.61888
vn 0.00000 0.81549 -0.54490
v 0.44000 -0.19272 -0.67728
v 0.44000 -0.15370 -0.67728
v 0.60000 -0.15370 -0.61888
vn 0.00000 0.81549 -0.54490
v 0.60000 -0.32000 -0.55000
v 0.60000 -0.19272 -0.61888
v 0.60000 -0.15370 -0.61888
vn 1.00000 0.00000 0.00000
v 0.44000 -0.32000 -0.55000
v 0.44000 -0.15370 -0.61888
v 0.44000 -0.19272 -0.67728
vn -1.00000 0.00000 0.00000
v 0.44000 -0.15370 -0.61888
v 0.60000 -0.14000 -0.55000
v 0.60000 -0.15370 -0.55000
vn 0.00000 0.96194 -0.19134
v 0.44000 -0.15370 -0.61888
v 0.44000 -0.14000 -0.61888
v 0.60000 -0.14000 -0.55000
vn 0.00000 0.96194 -0.19134
v 0.60000 -0.32000 -0.55000
v 0.60000 -0.15370 -0.55000
v 0.60000 -0.14000 -0.55000
vn 1.00000 0.00000 0.00000
v 0.44000 -0.32000 -0.55000
v 0.44000 -0.14000 -0.55000
v 0.44000 -0.15370 -0.61888
vn -1.00000 0.00000 0.00000
v -0.60000 -0.14000 -0.55000
v -0.44000 -0.15370 -0.48112
v -0.44000 -0.14000 -0.48112
vn 0.00000 0.96194 0.19134
v -0.60000 -0.14000 -0.55000
v -0.60000 -0.15370 -0.55000
v -0.44000 -0.15370 -0.48112
vn 0.00000 0.96194 0.19134
v -0.44000 -0.32000 -0.55000
v -0.44000 -0.14000 -0.48112
v -0.44000 -0.15370 -0.48112
vn 1.00000 0.00000 0.00000
v -0.60000 -0.32000 -0.55000
v -0.60000 -0.15370 -0.48112
v -0.60000 -0.14000 -0.55000
vn -1.00000 0.00000 0.00000
v -0.60000 -0.15370 -0.48112
v -0.44000 -0.19272 -0.42272
v -0.44000 -0.15370 -0.42272
vn 0.00000 0.81549 0.54490
v -0.60000 -0.15370 -0.48112
v -0.60000 -0.19272 -0.48112
v -0.44000 -0.19272 -0.42272
vn 0.00000 0.81549 0.54490
v -0.44000 -0.32000 -0.55000
v -0.44000 -0.15370 -0.42272
v -0.44000 -0.19272 -0.42272
vn 1.00000 0.00000 0.00000
v -0.60000 -0.32000 -0.55000
v -0.60000 -0.19272 -0.42272
v -0.60000 -0.15370 -0.48112
vn -1.00000 0.00000 0.00000
v -0.60000 -0.19272 -0.42272
v -0.44000 -0.25112 -0.38370
v -0.44000 -0.19272 -0.38370
vn 0.00000 0.54490 0.81549
v -0.60000 -0.19272 -0.42272
v -0.60000 -0.25112 -0.42272
v -0.44000 -0.25112 -0.38370
vn 0.00000 0.54490 0.81549
v -0.44000 -0.32000 -0.55000
v -0.44000 -0.19272 -0.38370
v -0.44000 -0.25112 -0.38370
vn 1.00000 0.00000 0.00000
v -0.60000 -0.32000 -0.55000
v -0.60000 -0.25112 -0.38370
v -0.60000 -0.19272 -0.42272
vn -1.00000 0.00000 0.00000
v -0.60000 -0.25112 -0.38370
v -0.44000 -0.32000 -0.37000
v -0.44000 -0.25112 -0.37000
vn 0.00000 0.19134 0.96194
v -0.60000 -0.25112 -0.38370
v -0.60000 -0.32000 -0.38370
v -0.44000 -0.32000 -0.37000
vn 0.00000 0.19134 0.96194
v -0.44000 -0.32000 -0.55000
v -0.44000 -0.25112 -0.37000
v -0.44000 -0.32000 -0.37000
vn 1.00000 0.00000 0.00000
v -0.60000 -0.32000 -0.55000
v -0.60000 -0.32000 -0.37000
v -0.60000 -0.25112 -0.38370
vn -1.00000 0.00000 0.00000
v -0.60000 -0.32000 -0.37000
v -0.44000 -0.38888 -0.38370
v -0.44000 -0.32000 -0.38370
vn 0.00000 -0.19134 0.96194
v -0.60000 -0.32000 -0.37000
v -0.60000 -0.38888 -0.37000
v -0.44000 -0.38888 -0.38370
vn 0.00000 -0.19134 0.96194
v -0.44000 -0.32000 -0.55000
v -0.44000 -0.32000 -0.38370
v -0.44000 -0.38888 -0.38370
vn 1.00000 0.00000 0.00000
v -0.60000 -0.32000 -0.55000
v -0.60000 -0.38888 -0.38370
v -0.60000 -0.32000 -0.37000
vn -1.00000 0.00000 0.00000
v -0.60000 -0.38888 -0.38370
v -0.44000 -0.44728 -0.42272
v -0.44000 -0.38888 -0.42272
vn 0.00000 -0.54490 0.81549
v -0.60000 -0.38888 -0.38370
v -0.60000 -0.44728 -0.38370
v -0.44000 -0.44728 -0.42272
vn 0.00000 -0.54490 0.81549
v -0.44000 -0.32000 -0.55000
v -0.44000 -0.38888 -0.42272
v -0.44000 -0.44728 -0.42272
vn 1.00000 0.00000 0.00000
v -0.60000 -0.32000 -0.55000
v -0.60000 -0.44728 -0.42272
v -0.60000 -0.38888 -0.38370
vn -1.00000 0.00000 0.00000
v -0.60000 -0.44728 -0.42272
v -0.44000 -0.48630 -0.48112
v -0.44000 -0.44728 -0.48112
vn 0.00000 -0.81549 0.54490
v -0.60000 -0.44728 -0.42272
v -0.60000 -0.48630 -0.42272
v -0.44000 -0.48630 -0.48112
vn 0.00000 -0.81549 0.54490
v -0.44000 -0.32000 -0.55000
v -0.44000 -0.44728 -0.48112
v -0.44000 -0.48630 -0.48112
vn 1.00000 0.00000 0.00000
v -0.60000 -0.32000 -0.55000
v -0.60000 -0.48630 -0.48112
v -0.60000 -0.44728 -0.42272
vn -1.00000 0.00000 0.00000
v -0.60000 -0.48630 -0.48112
v -0.44000 -0.50000 -0.55000
v -0.44000 -0.48630 -0.55000
vn 0.00000 -0.96194 0.19134
v -0.60000 -0.48630 -0.48112
v -0.60000 -0.50000 -0.48112
v -0.44000 -0.50000 -0.55000
vn 0.00000 -0.96194 0.19134
v -0.44000 -0.32000 -0.55000
v -0.44000 -0.48630 -0.55000
v -0.44000 -0.50000 -0.55000
vn 1.00000 0.00000 0.00000
v -0.60000 -0.32000 -0.55000
v -0.60000 -0.50000 -0.55000
v -0.60000 -0.48630 -0.48112
vn -1.00000 0.00000 0.00000
v -0.60000 -0.50000 -0.55000
v -0.44000 -0.48630 -0.61888
v -0.44000 -0.50000 -0.61888
vn 0.00000 -0.96194 -0.19134
v -0.60000 -0.50000 -0.55000
v -0.60000 -0.48630 -0.55000
v -0.44000 -0.48630 -0.61888
vn 0.00000 -0.96194 -0.19134
v -0.44000 -0.32000 -0.55000
v -0.44000 -0.50000 -0.61888
v -0.44000 -0.48630 -0.61888
vn 1.00000 0.00000 0.00000
v -0.60000 -0.32000 -0.55000
v -0.60000 -0.48630 -0.61888
v -0.60000 -0.50000 -0.55000
vn -1.00000 0.00000 0.00000
v -0.60000 -0.48630 -0.61888
v -0.44000 -0.44728 -0.67728
v -0.44000 -0.48630 -0.67728
vn 0.00000 -0.81549 -0.54490
v -0.60000 -0.48630 -0.61888
v -0.60000 -0.44728 -0.61888
v -0.44000 -0.44728 -0.67728
vn 0.00000 -0.81549 -0.54490
v -0.44000 -0.32000 -0.55000
v -0.44000 -0.48630 -0.67728
v -0.44000 -0.44728 -0.67728
vn 1.00000 0.00000 0.00000
v -0.60000 -0.32000 -0.55000
v -0.60000 -0.44728 -0.67728
v -0.60000 -0.48630 -0.61888
vn -1.00000 0.00000 0.00000
v -0.60000 -0.44728 -0.67728
v -0.44000 -0.38888 -0.71630
v -0.44000 -0.44728 -0.71630
vn 0.00000 -0.54490 -0.81549
v -0.60000 -0.44728 -0.67728
v -0.60000 -0.38888 -0.67728
v -0.44000 -0.38888 -0.71630
vn 0.00000 -0.54490 -0.81549
v -0.44000 -0.32000 -0.55000
v -0.44000 -0.44728 -0.71630
v -0.44000 -0.38888 -0.71630
vn 1.00000 0.00000 0.00000
v -0.60000 -0.32000 -0.55000
v -0.60000 -0.38888 -0.71630
v -0.60000 -0.44728 -0.67728
vn -1.00000 0.00000 0.00000
v -0.60000 -0.38888 -0.71630
v -0.44000 -0.32000 -0.73000
v -0.44000 -0.38888 -0.73000
vn 0.00000 -0.19134 -0.96194
v -0.60000 -0.38888 -0.71630
v -0.60000 -0.32000 -0.71630
v -0.44000 -0.32000 -0.73000
vn 0.00000 -0.19134 -0.96194
v -0.44000 -0.32000 -0.55000
v -0.44000 -0.38888 -0.73000
v -0.44000 -0.32000 -0.73000
vn 1.00000 0.00000 0.00000
v -0.60000 -0.32000 -0.55000
v -0.60000 -0.32000 -0.73000
v -0.60000 -0.38888 -0.71630
vn -1.00000 0.00000 0.00000
v -0.60000 -0.32000 -0.73000
v -0.44000 -0.25112 -0.71630
v -0.44000 -0.32000 -0.71630
vn 0.00000 0.19134 -0.96194
v -0.60000 -0.32000 -0.73000
v -0.60000 -0.25112 -0.73000
v -0.44000 -0.25112 -0.71630
vn 0.00000 0.19134 -0.96194
v -0.44000 -0.32000 -0.55000
v -0.44000 -0.32000 -0.71630
v -0.44000 -0.25112 -0.71630
vn 1.00000 0.00000 0.00000
v -0.60000 -0.32000 -0.55000
v -0.60000 -0.25112 -0.71630
v -0.60000 -0.32000 -0.73000
vn -1.00000 0.00000 0.00000
v -0.60000 -0.25112 -0.71630
v -0.44000 -0.19272 -0.67728
v -0.44000 -0.25112 -0.67728
vn 0.00000 0.54490 -0.81549
v -0.60000 -0.25112 -0.71630
v -0.60000 -0.19272 -0.71630
v -0.44000 -0.19272 -0.67728
vn 0.00000 0.54490 -0.81549
v -0.44000 -0.32000 -0.55000
v -0.44000 -0.25112 -0.67728
v -0.44000 -0.19272 -0.67728
vn 1.00000 0.00000 0.00000
v -0.60000 -0.32000 -0.55000
v -0.60000 -0.19272 -0.67728
v -0.60000 -0.25112 -0.71630
vn -1.00000 0.00000 0.00000
v -0.60000 -0.19272 -0.67728
v -0.44000 -0.15370 -0.61888
v -0.44000 -0.19272 -0.61888
vn 0.00000 0.81549 -0.54490
v -0.60000 -0.19272 -0.67728
v -0.60000 -0.15370 -0.67728
v -0.44000 -0.15370 -0.61888
vn 0.00000 0.81549 -0.54490
v -0.44000 -0.32000 -0.55000
v -0.44000 -0.19272 -0.61888
v -0.44000 -0.15370 -0.61888
vn 1.00000 0.00000 0.00000
v -0.60000 -0.32000 -0.55000
v -0.60000 -0.15370 -0.61888
v -0.60000 -0.19272 -0.67728
vn -1.00000 0.00000 0.00000
v -0.60000 -0.15370 -0.61888
v -0.44000 -0.14000 -0.55000
v -0.44000 -0.15370 -0.55000
vn 0.00000 0.96194 -0.19134
v -0.60000 -0.15370 -0.61888
v -0.60000 -0.14000 -0.61888
v -0.44000 -0.14000 -0.55000
vn 0.00000 0.96194 -0.19134
v -0.44000 -0.32000 -0.55000
v -0.44000 -0.15370 -0.55000
v -0.44000 -0.14000 -0.55000
vn 1.00000 0.00000 0.00000
v -0.60000 -0.32000 -0.55000
v -0.60000 -0.14000 -0.55000
v -0.60000 -0.15370 -0.61888
vn -1.00000 0.00000 0.00000
v -0.30000 -0.15000 0.96000
v -0.12000 -0.15000 0.96000
v -0.12000 0.02000 0.96000
vn 0.00000 0.00000 1.00000
v -0.30000 -0.15000 0.96000
v -0.12000 0.02000 0.96000
v -0.30000 0.02000 0.96000
vn 0.00000 0.00000 1.00000
v -0.12000 -0.15000 0.90000
v -0.30000 -0.15000 0.90000
v -0.30000 0.02000 0.90000
vn 0.00000 0.00000 -1.00000
v -0.12000 -0.15000 0.90000
v -0.30000 0.02000 0.90000
v -0.12000 0.02000 0.90000
vn 0.00000 0.00000 -1.00000
v -0.12000 -0.15000 0.96000
v -0.12000 -0.15000 0.90000
v -0.12000 0.02000 0.90000
vn 1.00000 0.00000 0.00000
v -0.12000 -0.15000 0.96000
v -0.12000 0.02000 0.90000
v -0.12000 0.02000 0.96000
vn 1.00000 0.00000 0.00000
v -0.30000 -0.15000 0.90000
v -0.30000 -0.15000 0.96000
v -0.30000 0.02000 0.96000
vn -1.00000 0.00000 0.00000
v -0.30000 -0.15000 0.90000
v -0.30000 0.02000 0.96000
v -0.30000 0.02000 0.90000
vn -1.00000 0.00000 0.00000
v -0.30000 0.02000 0.96000
v -0.12000 0.02000 0.96000
v -0.12000 0.02000 0.90000
vn 0.00000 1.00000 0.00000
v -0.30000 0.02000 0.96000
v -0.12000 0.02000 0.90000
v -0.30000 0.02000 0.90000
vn 0.00000 1.00000 0.00000
v -0.30000 -0.15000 0.90000
v -0.12000 -0.15000 0.90000
v -0.12000 -0.15000 0.96000
vn 0.00000 -1.00000 0.00000
v -0.30000 -0.15000 0.90000
v -0.12000 -0.15000 0.96000
v -0.30000 -0.15000 0.96000
vn 0.00000 -1.00000 0.00000
v 0.12000 -0.15000 0.96000
v 0.30000 -0.15000 0.96000
v 0.30000 0.02000 0.96000
vn 0.00000 0.00000 1.00000
v 0.12000 -0.15000 0.96000
v 0.30000 0.02000 0.96000
v 0.12000 0.02000 0.96000
vn 0.00000 0.00000 1.00000
v 0.30000 -0.15000 0.90000
v 0.12000 -0.15000 0.90000
v 0.12000 0.02000 0.90000
vn 0.00000 0.00000 -1.00000
v 0.30000 -0.15000 0.90000
v 0.12000 0.02000 0.90000
v 0.30000 0.02000 0.90000
vn 0.00000 0.00000 -1.00000
v 0.30000 -0.15000 0.96000
v 0.30000 -0.15000 0.90000
v 0.30000 0.02000 0.90000
vn 1.00000 0.00000 0.00000
v 0.30000 -0.15000 0.96000
v 0.30000 0.02000 0.90000
v 0.30000 0.02000 0.96000
vn 1.00000 0.00000 0.00000
v 0.12000 -0.15000 0.90000
v 0.12000 -0.15000 0.96000
v 0.12000 0.02000 0.96000
vn -1.00000 0.00000 0.00000
v 0.12000 -0.15000 0.90000
v 0.12000 0.02000 0.96000
v 0.12000 0.02000 0.90000
vn -1.00000 0.00000 0.00000
v 0.12000 0.02000 0.96000
v 0.30000 0.02000 0.96000
v 0.30000 0.02000 0.90000
vn 0.00000 1.00000 0.00000
v 0.12000 0.02000 0.96000
v 0.30000 0.02000 0.90000
v 0.12000 0.02000 0.90000
vn 0.00000 1.00000 0.00000
v 0.12000 -0.15000 0.90000
v 0.30000 -0.15000 0.90000
v 0.30000 -0.15000 0.96000
vn 0.00000 -1.00000 0.00000
v 0.12000 -0.15000 0.90000
v 0.30000 -0.15000 0.96000
v 0.12000 -0.15000 0.96000
vn 0.00000 -1.00000 0.00000
f 1/1/1 2/1/1 3/1/1
f 4/1/2 5/1/2 6/1/2
f 7/1/3 8/1/3 9/1/3
f 10/1/4 11/1/4 12/1/4
f 13/1/5 14/1/5 15/1/5
f 16/1/6 17/1/6 18/1/6
f 19/1/7 20/1/7 21/1/7
f 22/1/8 23/1/8 24/1/8
f 25/1/9 26/1/9 27/1/9
f 28/1/10 29/1/10 30/1/10
f 31/1/11 32/1/11 33/1/11
f 34/1/12 35/1/12 36/1/12
f 37/3/13 38/3/13 39/3/13
f 40/3/14 41/3/14 42/3/14
f 43/3/15 44/3/15 45/3/15
f 46/3/16 47/3/16 48/3/16
f 49/3/17 50/3/17 51/3/17
f 52/3/18 53/3/18 54/3/18
f 55/3/19 56/3/19 57/3/19
f 58/3/20 59/3/20 60/3/20
f 61/3/21 62/3/21 63/3/21
f 64/3/22 65/3/22 66/3/22
f 67/3/23 68/3/23 69/3/23
f 70/3/24 71/3/24 72/3/24
f 73/2/25 74/2/25 75/2/25
f 76/2/26 77/2/26 78/2/26
f 79/2/27 80/2/27 81/2/27
f 82/2/28 83/2/28 84/2/28
f 85/2/29 86/2/29 87/2/29
f 88/2/30 89/2/30 90/2/30
f 91/2/31 92/2/31 93/2/31
f 94/2/32 95/2/32 96/2/32
f 97/2/33 98/2/33 99/2/33
f 100/2/34 101/2/34 102/2/34
f 103/2/35 104/2/35 105/2/35
f 106/2/36 107/2/36 108/2/36
f 109/2/37 110/2/37 111/2/37
f 112/2/38 113/2/38 114/2/38
f 115/2/39 116/2/39 117/2/39
f 118/2/40 119/2/40 120/2/40
f 121/2/41 122/2/41 123/2/41
f 124/2/42 125/2/42 126/2/42
f 127/2/43 128/2/43 129/2/43
f 130/2/44 131/2/44 132/2/44
f 133/2/45 134/2/45 135/2/45
f 136/2/46 137/2/46 138/2/46
f 139/2/47 140/2/47 141/2/47
f 142/2/48 143/2/48 144/2/48
f 145/2/49 146/2/49 147/2/49
f 148/2/50 149/2/50 150/2/50
f 151/2/51 152/2/51 153/2/51
f 154/2/52 155/2/52 156/2/52
f 157/2/53 158/2/53 159/2/53
f 160/2/54 161/2/54 162/2/54
f 163/2/55 164/2/55 165/2/55
f 166/2/56 167/2/56 168/2/56
f 169/2/57 170/2/57 171/2/57
f 172/2/58 173/2/58 174/2/58
f 175/2/59 176/2/59 177/2/59
f 178/2/60 179/2/60 180/2/60
f 181/2/61 182/2/61 183/2/61
f 184/2/62 185/2/62 186/2/62
f 187/2/63 188/2/63 189/2/63
f 190/2/64 191/2/64 192/2/64
f 193/2/65 194/2/65 195/2/65
f 196/2/66 197/2/66 198/2/66
f 199/2/67 200/2/67 201/2/67
f 202/2/68 203/2/68 204/2/68
f 205/2/69 206/2/69 207/2/69
f 208/2/70 209/2/70 210/2/70
f 211/2/71 212/2/71 213/2/71
f 214/2/72 215/2/72 216/2/72
f 217/2/73 218/2/73 219/2/73
f 220/2/74 221/2/74 222/2/74
f 223/2/75 224/2/75 225/2/75
f 226/2/76 227/2/76 228/2/76
f 229/2/77 230/2/77 231/2/77
f 232/2/78 233/2/78 234/2/78
f 235/2/79 236/2/79 237/2/79
f 238/2/80 239/2/80 240/2/80
f 241/2/81 242/2/81 243/2/81
f 244/2/82 245/2/82 246/2/82
f 247/2/83 248/2/83 249/2/83
f 250/2/84 251/2/84 252/2/84
f 253/2/85 254/2/85 255/2/85
f 256/2/86 257/2/86 258/2/86
f 259/2/87 260/2/87 261/2/87
f 262/2/88 263/2/88 264/2/88
f 265/2/89 266/2/89 267/2/89
f 268/2/90 269/2/90 270/2/90
f 271/2/91 272/2/91 273/2/91
f 274/2/92 275/2/92 276/2/92
f 277/2/93 278/2/93 279/2/93
f 280/2/94 281/2/94 282/2/94
f 283/2/95 284/2/95 285/2/95
f 286/2/96 287/2/96 288/2/96
f 289/2/97 290/2/97 291/2/97
f 292/2/98 293/2/98 294/2/98
f 295/2/99 296/2/99 297/2/99
f 298/2/100 299/2/100 300/2/100
f 301/2/101 302/2/101 303/2/101
f 304/2/102 305/2/102 306/2/102
f 307/2/103 308/2/103 309/2/103
f 310/2/104 311/2/104 312/2/104
f 313/2/105 314/2/105 315/2/105
f 316/2/106 317/2/106 318/2/106
f 319/2/107 320/2/107 321/2/107
f 322/2/108 323/2/108 324/2/108
f 325/2/109 326/2/109 327/2/109
f 328/2/110 329/2/110 330/2/110
f 331/2/111 332/2/111 333/2/111
f 334/2/112 335/2/112 336/2/112
f 337/2/113 338/2/113 339/2/113
f 340/2/114 341/2/114 342/2/114
f 343/2/115 344/2/115 345/2/115
f 346/2/116 347/2/116 348/2/116
f 349/2/117 350/2/117 351/2/117
f 352/2/118 353/2/118 354/2/118
f 355/2/119 356/2/119 357/2/119
f 358/2/120 359/2/120 360/2/120
f 361/2/121 362/2/121 363/2/121
f 364/2/122 365/2/122 366/2/122
f 367/2/123 368/2/123 369/2/123
f 370/2/124 371/2/124 372/2/124
f 373/2/125 374/2/125 375/2/125
f 376/2/126 377/2/126 378/2/126
f 379/2/127 380/2/127 381/2/127
f 382/2/128 383/2/128 384/2/128
f 385/2/129 386/2/129 387/2/129
f 388/2/130 389/2/130 390/2/130
f 391/2/131 392/2/131 393/2/131
f 394/2/132 395/2/132 396/2/132
f 397/2/133 398/2/133 399/2/133
f 400/2/134 401/2/134 402/2/134
f 403/2/135 404/2/135 405/2/135
f 406/2/136 407/2/136 408/2/136
f 409/2/137 410/2/137 411/2/137
f 412/2/138 413/2/138 414/2/138
f 415/2/139 416/2/139 417/2/139
f 418/2/140 419/2/140 420/2/140
f 421/2/141 422/2/141 423/2/141
f 424/2/142 425/2/142 426/2/142
f 427/2/143 428/2/143 429/2/143
f 430/2/144 431/2/144 432/2/144
f 433/2/145 434/2/145 435/2/145
f 436/2/146 437/2/146 438/2/146
f 439/2/147 440/2/147 441/2/147
f 442/2/148 443/2/148 444/2/148
f 445/2/149 446/2/149 447/2/149
f 448/2/150 449/2/150 450/2/150
f 451/2/151 452/2/151 453/2/151
f 454/2/152 455/2/152 456/2/152
f 457/2/153 458/2/153 459/2/153
f 460/2/154 461/2/154 462/2/154
f 463/2/155 464/2/155 465/2/155
f 466/2/156 467/2/156 468/2/156
f 469/2/157 470/2/157 471/2/157
f 472/2/158 473/2/158 474/2/158
f 475/2/159 476/2/159 477/2/159
f 478/2/160 479/2/160 480/2/160
f 481/2/161 482/2/161 483/2/161
f 484/2/162 485/2/162 486/2/162
f 487/2/163 488/2/163 489/2/163
f 490/2/164 491/2/164 492/2/164
f 493/2/165 494/2/165 495/2/165
f 496/2/166 497/2/166 498/2/166
f 499/2/167 500/2/167 501/2/167
f 502/2/168 503/2/168 504/2/168
f 505/2/169 506/2/169 507/2/169
f 508/2/170 509/2/170 510/2/170
f 511/2/171 512/2/171 513/2/171
f 514/2/172 515/2/172 516/2/172
f 517/2/173 518/2/173 519/2/173
f 520/2/174 521/2/174 522/2/174
f 523/2/175 524/2/175 525/2/175
f 526/2/176 527/2/176 528/2/176
f 529/2/177 530/2/177 531/2/177
f 532/2/178 533/2/178 534/2/178
f 535/2/179 536/2/179 537/2/179
f 538/2/180 539/2/180 540/2/180
f 541/2/181 542/2/181 543/2/181
f 544/2/182 545/2/182 546/2/182
f 547/2/183 548/2/183 549/2/183
f 550/2/184 551/2/184 552/2/184
f 553/2/185 554/2/185 555/2/185
f 556/2/186 557/2/186 558/2/186
f 559/2/187 560/2/187 561/2/187
f 562/2/188 563/2/188 564/2/188
f 565/2/189 566/2/189 567/2/189
f 568/2/190 569/2/190 570/2/190
f 571/2/191 572/2/191 573/2/191
f 574/2/192 575/2/192 576/2/192
f 577/2/193 578/2/193 579/2/193
f 580/2/194 581/2/194 582/2/194
f 583/2/195 584/2/195 585/2/195
f 586/2/196 587/2/196 588/2/196
f 589/2/197 590/2/197 591/2/197
f 592/2/198 593/2/198 594/2/198
f 595/2/199 596/2/199 597/2/199
f 598/2/200 599/2/200 600/2/200
f 601/2/201 602/2/201 603/2/201
f 604/2/202 605/2/202 606/2/202
f 607/2/203 608/2/203 609/2/203
f 610/2/204 611/2/204 612/2/204
f 613/2/205 614/2/205 615/2/205
f 616/2/206 617/2/206 618/2/206
f 619/2/207 620/2/207 621/2/207
f 622/2/208 623/2/208 624/2/208
f 625/2/209 626/2/209 627/2/209
f 628/2/210 629/2/210 630/2/210
f 631/2/211 632/2/211 633/2/211
f 634/2/212 635/2/212 636/2/212
f 637/2/213 638/2/213 639/2/213
f 640/2/214 641/2/214 642/2/214
f 643/2/215 644/2/215 645/2/215
f 646/2/216 647/2/216 648/2/216
f 649/2/217 650/2/217 651/2/217
f 652/2/218 653/2/218 654/2/218
f 655/2/219 656/2/219 657/2/219
f 658/2/220 659/2/220 660/2/220
f 661/2/221 662/2/221 663/2/221
f 664/2/222 665/2/222 666/2/222
f 667/2/223 668/2/223 669/2/223
f 670/2/224 671/2/224 672/2/224
f 673/2/225 674/2/225 675/2/225
f 676/2/226 677/2/226 678/2/226
f 679/2/227 680/2/227 681/2/227
f 682/2/228 683/2/228 684/2/228
f 685/2/229 686/2/229 687/2/229
f 688/2/230 689/2/230 690/2/230
f 691/2/231 692/2/231 693/2/231
f 694/2/232 695/2/232 696/2/232
f 697/2/233 698/2/233 699/2/233
f 700/2/234 701/2/234 702/2/234
f 703/2/235 704/2/235 705/2/235
f 706/2/236 707/2/236 708/2/236
f 709/2/237 710/2/237 711/2/237
f 712/2/238 713/2/238 714/2/238
f 715/2/239 716/2/239 717/2/239
f 718/2/240 719/2/240 720/2/240
f 721/2/241 722/2/241 723/2/241
f 724/2/242 725/2/242 726/2/242
f 727/2/243 728/2/243 729/2/243
f 730/2/244 731/2/244 732/2/244
f 733/2/245 734/2/245 735/2/245
f 736/2/246 737/2/246 738/2/246
f 739/2/247 740/2/247 741/2/247
f 742/2/248 743/2/248 744/2/248
f 745/2/249 746/2/249 747/2/249
f 748/2/250 749/2/250 750/2/250
f 751/2/251 752/2/251 753/2/251
f 754/2/252 755/2/252 756/2/252
f 757/2/253 758/2/253 759/2/253
f 760/2/254 761/2/254 762/2/254
f 763/2/255 764/2/255 765/2/255
f 766/2/256 767/2/256 768/2/256
f 769/2/257 770/2/257 771/2/257
f 772/2/258 773/2/258 774/2/258
f 775/2/259 776/2/259 777/2/259
f 778/2/260 779/2/260 780/2/260
f 781/2/261 782/2/261 783/2/261
f 784/2/262 785/2/262 786/2/262
f 787/2/263 788/2/263 789/2/263
f 790/2/264 791/2/264 792/2/264
f 793/2/265 794/2/265 795/2/265
f 796/2/266 797/2/266 798/2/266
f 799/2/267 800/2/267 801/2/267
f 802/2/268 803/2/268 804/2/268
f 805/2/269 806/2/269 807/2/269
f 808/2/270 809/2/270 810/2/270
f 811/2/271 812/2/271 813/2/271
f 814/2/272 815/2/272 816/2/272
f 817/2/273 818/2/273 819/2/273
f 820/2/274 821/2/274 822/2/274
f 823/2/275 824/2/275 825/2/275
f 826/2/276 827/2/276 828/2/276
f 829/2/277 830/2/277 831/2/277
f 832/2/278 833/2/278 834/2/278
f 835/2/279 836/2/279 837/2/279
f 838/2/280 839/2/280 840/2/280
f 841/4/281 842/4/281 843/4/281
f 844/4/282 845/4/282 846/4/282
f 847/4/283 848/4/283 849/4/283
f 850/4/284 851/4/284 852/4/284
f 853/4/285 854/4/285 855/4/285
f 856/4/286 857/4/286 858/4/286
f 859/4/287 860/4/287 861/4/287
f 862/4/288 863/4/288 864/4/288
f 865/4/289 866/4/289 867/4/289
f 868/4/290 869/4/290 870/4/290
f 871/4/291 872/4/291 873/4/291
f 874/4/292 875/4/292 876/4/292
f 877/4/293 878/4/293 879/4/293
f 880/4/294 881/4/294 882/4/294
f 883/4/295 884/4/295 885/4/295
f 886/4/296 887/4/296 888/4/296
f 889/4/297 890/4/297 891/4/297
f 892/4/298 893/4/298 894/4/298
f 895/4/299 896/4/299 897/4/299
f 898/4/300 899/4/300 900/4/300
f 901/4/301 902/4/301 903/4/301
f 904/4/302 905/4/302 906/4/302
f 907/4/303 908/4/303 909/4/303
f 910/4/304 911/4/304 912/4/304
