# generated mesh
vt 0.03125 0.50000
vt 0.09375 0.50000
vt 0.15625 0.50000
vt 0.21875 0.50000
vt 0.28125 0.50000
vt 0.34375 0.50000
vt 0.40625 0.50000
vt 0.46875 0.50000
vt 0.53125 0.50000
vt 0.59375 0.50000
vt 0.65625 0.50000
vt 0.71875 0.50000
vt 0.78125 0.50000
vt 0.84375 0.50000
vt 0.90625 0.50000
vt 0.96875 0.50000
v -0.10000 0.00000 0.10000
v 0.10000 0.00000 0.10000
v 0.10000 4.00000 0.10000
vn 0.00000 0.00000 1.00000
v -0.10000 0.00000 0.10000
v 0.10000 4.00000 0.10000
v -0.10000 4.00000 0.10000
vn 0.00000 0.00000 1.00000
v 0.10000 0.00000 -0.10000
v -0.10000 0.00000 -0.10000
v -0.10000 4.00000 -0.10000
vn 0.00000 0.00000 -1.00000
v 0.10000 0.00000 -0.10000
v -0.10000 4.00000 -0.10000
v 0.10000 4.00000 -0.10000
vn 0.00000 0.00000 -1.00000
v 0.10000 0.00000 0.10000
v 0.10000 0.00000 -0.10000
v 0.10000 4.00000 -0.10000
vn 1.00000 0.00000 0.00000
v 0.10000 0.00000 0.10000
v 0.10000 4.00000 -0.10000
v 0.10000 4.00000 0.10000
vn 1.00000 0.00000 0.00000
v -0.10000 0.00000 -0.10000
v -0.10000 0.00000 0.10000
v -0.10000 4.00000 0.10000
vn -1.00000 0.00000 0.00000
v -0.10000 0.00000 -0.10000
v -0.10000 4.00000 0.10000
v -0.10000 4.00000 -0.10000
vn -1.00000 0.00000 0.00000
v -0.10000 4.00000 0.10000
v 0.10000 4.00000 0.10000
v 0.10000 4.00000 -0.10000
vn 0.00000 1.00000 0.00000
v -0.10000 4.00000 0.10000
v 0.10000 4.00000 -0.10000
v -0.10000 4.00000 -0.10000
vn 0.00000 1.00000 0.00000
v -0.10000 0.00000 -0.10000
v 0.10000 0.00000 -0.10000
v 0.10000 0.00000 0.10000
vn 0.00000 -1.00000 0.00000
v -0.10000 0.00000 -0.10000
v 0.10000 0.00000 0.10000
v -0.10000 0.00000 0.10000
vn 0.00000 -1.00000 0.00000
v -0.10000 3.60000 0.12000
v 0.60000 3.60000 0.12000
v 0.60000 4.00000 0.12000
vn 0.00000 0.00000 1.00000
v -0.10000 3.60000 0.12000
v 0.60000 4.00000 0.12000
v -0.10000 4.00000 0.12000
vn 0.00000 0.00000 1.00000
v 0.60000 3.60000 0.10000
v -0.10000 3.60000 0.10000
v -0.10000 4.00000 0.10000
vn 0.00000 0.00000 -1.00000
v 0.60000 3.60000 0.10000
v -0.10000 4.00000 0.10000
v 0.60000 4.00000 0.10000
vn 0.00000 0.00000 -1.00000
v 0.60000 3.60000 0.12000
v 0.60000 3.60000 0.10000
v 0.60000 4.00000 0.10000
vn 1.00000 0.00000 0.00000
v 0.60000 3.60000 0.12000
v 0.60000 4.00000 0.10000
v 0.60000 4.00000 0.12000
vn 1.00000 0.00000 0.00000
v -0.10000 3.60000 0.10000
v -0.10000 3.60000 0.12000
v -0.10000 4.00000 0.12000
vn -1.00000 0.00000 0.00000
v -0.10000 3.60000 0.10000
v -0.10000 4.00000 0.12000
v -0.10000 4.00000 0.10000
vn -1.00000 0.00000 0.00000
v -0.10000 4.00000 0.12000
v 0.60000 4.00000 0.12000
v 0.60000 4.00000 0.10000
vn 0.00000 1.00000 0.00000
v -0.10000 4.00000 0.12000
v 0.60000 4.00000 0.10000
v -0.10000 4.00000 0.10000
vn 0.00000 1.00000 0.00000
v -0.10000 3.60000 0.10000
v 0.60000 3.60000 0.10000
v 0.60000 3.60000 0.12000
vn 0.00000 -1.00000 0.00000
v -0.10000 3.60000 0.10000
v 0.60000 3.60000 0.12000
v -0.10000 3.60000 0.12000
vn 0.00000 -1.00000 0.00000
f 1/12/1 2/12/1 3/12/1
f 4/12/2 5/12/2 6/12/2
f 7/12/3 8/12/3 9/12/3
f 10/12/4 11/12/4 12/12/4
f 13/12/5 14/12/5 15/12/5
f 16/12/6 17/12/6 18/12/6
f 19/12/7 20/12/7 21/12/7
f 22/12/8 23/12/8 24/12/8
f 25/12/9 26/12/9 27/12/9
f 28/12/10 29/12/10 30/12/10
f 31/12/11 32/12/11 33/12/11
f 34/12/12 35/12/12 36/12/12
f 37/12/13 38/12/13 39/12/13
f 40/12/14 41/12/14 42/12/14
f 43/12/15 44/12/15 45/12/15
f 46/12/16 47/12/16 48/12/16
f 49/12/17 50/12/17 51/12/17
f 52/12/18 53/12/18 54/12/18
f 55/12/19 56/12/19 57/12/19
f 58/12/20 59/12/20 60/12/20
f 61/12/21 62/12/21 63/12/21
f 64/12/22 65/12/22 66/12/22
f 67/12/23 68/12/23 69/12/23
f 70/12/24 71/12/24 72/12/24
