# generated mesh
vt 0.03125 0.50000
vt 0.09375 0.50000
vt 0.15625 0.50000
vt 0.21875 0.50000
vt 0.28125 0.50000
vt 0.34375 0.50000
vt 0.40625 0.50000
vt 0.46875 0.50000
vt 0.53125 0.50000
vt 0.59375 0.50000
vt 0.65625 0.50000
vt 0.71875 0.50000
vt 0.78125 0.50000
vt 0.84375 0.50000
vt 0.90625 0.50000
vt 0.96875 0.50000
v -0.60000 0.00000 1.50000
v 0.60000 0.00000 1.50000
v 0.60000 1.20000 1.50000
vn 0.00000 0.00000 1.00000
v -0.60000 0.00000 1.50000
v 0.60000 1.20000 1.50000
v -0.60000 1.20000 1.50000
vn 0.00000 0.00000 1.00000
v 0.60000 0.00000 -1.50000
v -0.60000 0.00000 -1.50000
v -0.60000 1.20000 -1.50000
vn 0.00000 0.00000 -1.00000
v 0.60000 0.00000 -1.50000
v -0.60000 1.20000 -1.50000
v 0.60000 1.20000 -1.50000
vn 0.00000 0.00000 -1.00000
v 0.60000 0.00000 1.50000
v 0.60000 0.00000 -1.50000
v 0.60000 1.20000 -1.50000
vn 1.00000 0.00000 0.00000
v 0.60000 0.00000 1.50000
v 0.60000 1.20000 -1.50000
v 0.60000 1.20000 1.50000
vn 1.00000 0.00000 0.00000
v -0.60000 0.00000 -1.50000
v -0.60000 0.00000 1.50000
v -0.60000 1.20000 1.50000
vn -1.00000 0.00000 0.00000
v -0.60000 0.00000 -1.50000
v -0.60000 1.20000 1.50000
v -0.60000 1.20000 -1.50000
vn -1.00000 0.00000 0.00000
v -0.60000 1.20000 1.50000
v 0.60000 1.20000 1.50000
v 0.60000 1.20000 -1.50000
vn 0.00000 1.00000 0.00000
v -0.60000 1.20000 1.50000
v 0.60000 1.20000 -1.50000
v -0.60000 1.20000 -1.50000
vn 0.00000 1.00000 0.00000
v -0.60000 0.00000 -1.50000
v 0.60000 0.00000 -1.50000
v 0.60000 0.00000 1.50000
vn 0.00000 -1.00000 0.00000
v -0.60000 0.00000 -1.50000
v 0.60000 0.00000 1.50000
v -0.60000 0.00000 1.50000
vn 0.00000 -1.00000 0.00000
v -0.61000 0.10000 1.50000
v -0.60000 0.10000 1.50000
v -0.60000 1.10000 1.50000
vn 0.00000 0.00000 1.00000
v -0.61000 0.10000 1.50000
v -0.60000 1.10000 1.50000
v -0.61000 1.10000 1.50000
vn 0.00000 0.00000 1.00000
v -0.60000 0.10000 -1.50000
v -0.61000 0.10000 -1.50000
v -0.61000 1.10000 -1.50000
vn 0.00000 0.00000 -1.00000
v -0.60000 0.10000 -1.50000
v -0.61000 1.10000 -1.50000
v -0.60000 1.10000 -1.50000
vn 0.00000 0.00000 -1.00000
v -0.60000 0.10000 1.50000
v -0.60000 0.10000 -1.50000
v -0.60000 1.10000 -1.50000
vn 1.00000 0.00000 0.00000
v -0.60000 0.10000 1.50000
v -0.60000 1.10000 -1.50000
v -0.60000 1.10000 1.50000
vn 1.00000 0.00000 0.00000
v -0.61000 0.10000 -1.50000
v -0.61000 0.10000 1.50000
v -0.61000 1.10000 1.50000
vn -1.00000 0.00000 0.00000
v -0.61000 0.10000 -1.50000
v -0.61000 1.10000 1.50000
v -0.61000 1.10000 -1.50000
vn -1.00000 0.00000 0.00000
v -0.61000 1.10000 1.50000
v -0.60000 1.10000 1.50000
v -0.60000 1.10000 -1.50000
vn 0.00000 1.00000 0.00000
v -0.61000 1.10000 1.50000
v -0.60000 1.10000 -1.50000
v -0.61000 1.10000 -1.50000
vn 0.00000 1.00000 0.00000
v -0.61000 0.10000 -1.50000
v -0.60000 0.10000 -1.50000
v -0.60000 0.10000 1.50000
vn 0.00000 -1.00000 0.00000
v -0.61000 0.10000 -1.50000
v -0.60000 0.10000 1.50000
v -0.61000 0.10000 1.50000
vn 0.00000 -1.00000 0.00000
f 1/8/1 2/8/1 3/8/1
f 4/8/2 5/8/2 6/8/2
f 7/8/3 8/8/3 9/8/3
f 10/8/4 11/8/4 12/8/4
f 13/8/5 14/8/5 15/8/5
f 16/8/6 17/8/6 18/8/6
f 19/8/7 20/8/7 21/8/7
f 22/8/8 23/8/8 24/8/8
f 25/8/9 26/8/9 27/8/9
f 28/8/10 29/8/10 30/8/10
f 31/8/11 32/8/11 33/8/11
f 34/8/12 35/8/12 36/8/12
f 37/11/13 38/11/13 39/11/13
f 40/11/14 41/11/14 42/11/14
f 43/11/15 44/11/15 45/11/15
f 46/11/16 47/11/16 48/11/16
f 49/11/17 50/11/17 51/11/17
f 52/11/18 53/11/18 54/11/18
f 55/11/19 56/11/19 57/11/19
f 58/11/20 59/11/20 60/11/20
f 61/11/21 62/11/21 63/11/21
f 64/11/22 65/11/22 66/11/22
f 67/11/23 68/11/23 69/11/23
f 70/11/24 71/11/24 72/11/24
