# generated mesh
vt 0.03125 0.50000
vt 0.09375 0.50000
vt 0.15625 0.50000
vt 0.21875 0.50000
vt 0.28125 0.50000
vt 0.34375 0.50000
vt 0.40625 0.50000
vt 0.46875 0.50000
vt 0.53125 0.50000
vt 0.59375 0.50000
vt 0.65625 0.50000
vt 0.71875 0.50000
vt 0.78125 0.50000
vt 0.84375 0.50000
vt 0.90625 0.50000
vt 0.96875 0.50000
v -0.30000 0.00000 0.30000
v 0.30000 0.00000 0.30000
v 0.30000 0.60000 0.30000
vn 0.00000 0.00000 1.00000
v -0.30000 0.00000 0.30000
v 0.30000 0.60000 0.30000
v -0.30000 0.60000 0.30000
vn 0.00000 0.00000 1.00000
v 0.30000 0.00000 -0.30000
v -0.30000 0.00000 -0.30000
v -0.30000 0.60000 -0.30000
vn 0.00000 0.00000 -1.00000
v 0.30000 0.00000 -0.30000
v -0.30000 0.60000 -0.30000
v 0.30000 0.60000 -0.30000
vn 0.00000 0.00000 -1.00000
v 0.30000 0.00000 0.30000
v 0.30000 0.00000 -0.30000
v 0.30000 0.60000 -0.30000
vn 1.00000 0.00000 0.00000
v 0.30000 0.00000 0.30000
v 0.30000 0.60000 -0.30000
v 0.30000 0.60000 0.30000
vn 1.00000 0.00000 0.00000
v -0.30000 0.00000 -0.30000
v -0.30000 0.00000 0.30000
v -0.30000 0.60000 0.30000
vn -1.00000 0.00000 0.00000
v -0.30000 0.00000 -0.30000
v -0.30000 0.60000 0.30000
v -0.30000 0.60000 -0.30000
vn -1.00000 0.00000 0.00000
v -0.30000 0.60000 0.30000
v 0.30000 0.60000 0.30000
v 0.30000 0.60000 -0.30000
vn 0.00000 1.00000 0.00000
v -0.30000 0.60000 0.30000
v 0.30000 0.60000 -0.30000
v -0.30000 0.60000 -0.30000
vn 0.00000 1.00000 0.00000
v -0.30000 0.00000 -0.30000
v 0.30000 0.00000 -0.30000
v 0.30000 0.00000 0.30000
vn 0.00000 -1.00000 0.00000
v -0.30000 0.00000 -0.30000
v 0.30000 0.00000 0.30000
v -0.30000 0.00000 0.30000
vn 0.00000 -1.00000 0.00000
f 1/10/1 2/10/1 3/10/1
f 4/10/2 5/10/2 6/10/2
f 7/10/3 8/10/3 9/10/3
f 10/10/4 11/10/4 12/10/4
f 13/10/5 14/10/5 15/10/5
f 16/10/6 17/10/6 18/10/6
f 19/10/7 20/10/7 21/10/7
f 22/10/8 23/10/8 24/10/8
f 25/10/9 26/10/9 27/10/9
f 28/10/10 29/10/10 30/10/10
f 31/10/11 32/10/11 33/10/11
f 34/10/12 35/10/12 36/10/12
