# generated mesh
vt 0.03125 0.50000
vt 0.09375 0.50000
vt 0.15625 0.50000
vt 0.21875 0.50000
vt 0.28125 0.50000
vt 0.34375 0.50000
vt 0.40625 0.50000
vt 0.46875 0.50000
vt 0.53125 0.50000
vt 0.59375 0.50000
vt 0.65625 0.50000
vt 0.71875 0.50000
vt 0.78125 0.50000
vt 0.84375 0.50000
vt 0.90625 0.50000
vt 0.96875 0.50000
v -0.80000 0.30000 0.18000
v 0.80000 0.28858 0.23740
v 0.80000 0.30000 0.23740
vn 0.00000 0.96194 0.19134
v -0.80000 0.30000 0.18000
v -0.80000 0.28858 0.18000
v 0.80000 0.28858 0.23740
vn 0.00000 0.96194 0.19134
v 0.80000 0.15000 0.18000
v 0.80000 0.30000 0.23740
v 0.80000 0.28858 0.23740
vn 1.00000 0.00000 0.00000
v -0.80000 0.15000 0.18000
v -0.80000 0.28858 0.23740
v -0.80000 0.30000 0.18000
vn -1.00000 0.00000 0.00000
v -0.80000 0.28858 0.23740
v 0.80000 0.25607 0.28607
v 0.80000 0.28858 0.28607
vn 0.00000 0.81549 0.54490
v -0.80000 0.28858 0.23740
v -0.80000 0.25607 0.23740
v 0.80000 0.25607 0.28607
vn 0.00000 0.81549 0.54490
v 0.80000 0.15000 0.18000
v 0.80000 0.28858 0.28607
v 0.80000 0.25607 0.28607
vn 1.00000 0.00000 0.00000
v -0.80000 0.15000 0.18000
v -0.80000 0.25607 0.28607
v -0.80000 0.28858 0.23740
vn -1.00000 0.00000 0.00000
v -0.80000 0.25607 0.28607
v 0.80000 0.20740 0.31858
v 0.80000 0.25607 0.31858
vn 0.00000 0.54490 0.81549
v -0.80000 0.25607 0.28607
v -0.80000 0.20740 0.28607
v 0.80000 0.20740 0.31858
vn 0.00000 0.54490 0.81549
v 0.80000 0.15000 0.18000
v 0.80000 0.25607 0.31858
v 0.80000 0.20740 0.31858
vn 1.00000 0.00000 0.00000
v -0.80000 0.15000 0.18000
v -0.80000 0.20740 0.31858
v -0.80000 0.25607 0.28607
vn -1.00000 0.00000 0.00000
v -0.80000 0.20740 0.31858
v 0.80000 0.15000 0.33000
v 0.80000 0.20740 0.33000
vn 0.00000 0.19134 0.96194
v -0.80000 0.20740 0.31858
v -0.80000 0.15000 0.31858
v 0.80000 0.15000 0.33000
vn 0.00000 0.19134 0.96194
v 0.80000 0.15000 0.18000
v 0.80000 0.20740 0.33000
v 0.80000 0.15000 0.33000
vn 1.00000 0.00000 0.00000
v -0.80000 0.15000 0.18000
v -0.80000 0.15000 0.33000
v -0.80000 0.20740 0.31858
vn -1.00000 0.00000 0.00000
v -0.80000 0.15000 0.33000
v 0.80000 0.09260 0.31858
v 0.80000 0.15000 0.31858
vn 0.00000 -0.19134 0.96194
v -0.80000 0.15000 0.33000
v -0.80000 0.09260 0.33000
v 0.80000 0.09260 0.31858
vn 0.00000 -0.19134 0.96194
v 0.80000 0.15000 0.18000
v 0.80000 0.15000 0.31858
v 0.80000 0.09260 0.31858
vn 1.00000 0.00000 0.00000
v -0.80000 0.15000 0.18000
v -0.80000 0.09260 0.31858
v -0.80000 0.15000 0.33000
vn -1.00000 0.00000 0.00000
v -0.80000 0.09260 0.31858
v 0.80000 0.04393 0.28607
v 0.80000 0.09260 0.28607
vn 0.00000 -0.54490 0.81549
v -0.80000 0.09260 0.31858
v -0.80000 0.04393 0.31858
v 0.80000 0.04393 0.28607
vn 0.00000 -0.54490 0.81549
v 0.80000 0.15000 0.18000
v 0.80000 0.09260 0.28607
v 0.80000 0.04393 0.28607
vn 1.00000 0.00000 0.00000
v -0.80000 0.15000 0.18000
v -0.80000 0.04393 0.28607
v -0.80000 0.09260 0.31858
vn -1.00000 0.00000 0.00000
v -0.80000 0.04393 0.28607
v 0.80000 0.01142 0.23740
v 0.80000 0.04393 0.23740
vn 0.00000 -0.81549 0.54490
v -0.80000 0.04393 0.28607
v -0.80000 0.01142 0.28607
v 0.80000 0.01142 0.23740
vn 0.00000 -0.81549 0.54490
v 0.80000 0.15000 0.18000
v 0.80000 0.04393 0.23740
v 0.80000 0.01142 0.23740
vn 1.00000 0.00000 0.00000
v -0.80000 0.15000 0.18000
v -0.80000 0.01142 0.23740
v -0.80000 0.04393 0.28607
vn -1.00000 0.00000 0.00000
v -0.80000 0.01142 0.23740
v 0.80000 0.00000 0.18000
v 0.80000 0.01142 0.18000
vn 0.00000 -0.96194 0.19134
v -0.80000 0.01142 0.23740
v -0.80000 0.00000 0.23740
v 0.80000 0.00000 0.18000
vn 0.00000 -0.96194 0.19134
v 0.80000 0.15000 0.18000
v 0.80000 0.01142 0.18000
v 0.80000 0.00000 0.18000
vn 1.00000 0.00000 0.00000
v -0.80000 0.15000 0.18000
v -0.80000 0.00000 0.18000
v -0.80000 0.01142 0.23740
vn -1.00000 0.00000 0.00000
v -0.80000 0.00000 0.18000
v 0.80000 0.01142 0.12260
v 0.80000 0.00000 0.12260
vn 0.00000 -0.96194 -0.19134
v -0.80000 0.00000 0.18000
v -0.80000 0.01142 0.18000
v 0.80000 0.01142 0.12260
vn 0.00000 -0.96194 -0.19134
v 0.80000 0.15000 0.18000
v 0.80000 0.00000 0.12260
v 0.80000 0.01142 0.12260
vn 1.00000 0.00000 0.00000
v -0.80000 0.15000 0.18000
v -0.80000 0.01142 0.12260
v -0.80000 0.00000 0.18000
vn -1.00000 0.00000 0.00000
v -0.80000 0.01142 0.12260
v 0.80000 0.04393 0.07393
v 0.80000 0.01142 0.07393
vn 0.00000 -0.81549 -0.54490
v -0.80000 0.01142 0.12260
v -0.80000 0.04393 0.12260
v 0.80000 0.04393 0.07393
vn 0.00000 -0.81549 -0.54490
v 0.80000 0.15000 0.18000
v 0.80000 0.01142 0.07393
v 0.80000 0.04393 0.07393
vn 1.00000 0.00000 0.00000
v -0.80000 0.15000 0.18000
v -0.80000 0.04393 0.07393
v -0.80000 0.01142 0.12260
vn -1.00000 0.00000 0.00000
v -0.80000 0.04393 0.07393
v 0.80000 0.09260 0.04142
v 0.80000 0.04393 0.04142
vn 0.00000 -0.54490 -0.81549
v -0.80000 0.04393 0.07393
v -0.80000 0.09260 0.07393
v 0.80000 0.09260 0.04142
vn 0.00000 -0.54490 -0.81549
v 0.80000 0.15000 0.18000
v 0.80000 0.04393 0.04142
v 0.80000 0.09260 0.04142
vn 1.00000 0.00000 0.00000
v -0.80000 0.15000 0.18000
v -0.80000 0.09260 0.04142
v -0.80000 0.04393 0.07393
vn -1.00000 0.00000 0.00000
v -0.80000 0.09260 0.04142
v 0.80000 0.15000 0.03000
v 0.80000 0.09260 0.03000
vn 0.00000 -0.19134 -0.96194
v -0.80000 0.09260 0.04142
v -0.80000 0.15000 0.04142
v 0.80000 0.15000 0.03000
vn 0.00000 -0.19134 -0.96194
v 0.80000 0.15000 0.18000
v 0.80000 0.09260 0.03000
v 0.80000 0.15000 0.03000
vn 1.00000 0.00000 0.00000
v -0.80000 0.15000 0.18000
v -0.80000 0.15000 0.03000
v -0.80000 0.09260 0.04142
vn -1.00000 0.00000 0.00000
v -0.80000 0.15000 0.03000
v 0.80000 0.20740 0.04142
v 0.80000 0.15000 0.04142
vn 0.00000 0.19134 -0.96194
v -0.80000 0.15000 0.03000
v -0.80000 0.20740 0.03000
v 0.80000 0.20740 0.04142
vn 0.00000 0.19134 -0.96194
v 0.80000 0.15000 0.18000
v 0.80000 0.15000 0.04142
v 0.80000 0.20740 0.04142
vn 1.00000 0.00000 0.00000
v -0.80000 0.15000 0.18000
v -0.80000 0.20740 0.04142
v -0.80000 0.15000 0.03000
vn -1.00000 0.00000 0.00000
v -0.80000 0.20740 0.04142
v 0.80000 0.25607 0.07393
v 0.80000 0.20740 0.07393
vn 0.00000 0.54490 -0.81549
v -0.80000 0.20740 0.04142
v -0.80000 0.25607 0.04142
v 0.80000 0.25607 0.07393
vn 0.00000 0.54490 -0.81549
v 0.80000 0.15000 0.18000
v 0.80000 0.20740 0.07393
v 0.80000 0.25607 0.07393
vn 1.00000 0.00000 0.00000
v -0.80000 0.15000 0.18000
v -0.80000 0.25607 0.07393
v -0.80000 0.20740 0.04142
vn -1.00000 0.00000 0.00000
v -0.80000 0.25607 0.07393
v 0.80000 0.28858 0.12260
v 0.80000 0.25607 0.12260
vn 0.00000 0.81549 -0.54490
v -0.80000 0.25607 0.07393
v -0.80000 0.28858 0.07393
v 0.80000 0.28858 0.12260
vn 0.00000 0.81549 -0.54490
v 0.80000 0.15000 0.18000
v 0.80000 0.25607 0.12260
v 0.80000 0.28858 0.12260
vn 1.00000 0.00000 0.00000
v -0.80000 0.15000 0.18000
v -0.80000 0.28858 0.12260
v -0.80000 0.25607 0.07393
vn -1.00000 0.00000 0.00000
v -0.80000 0.28858 0.12260
v 0.80000 0.30000 0.18000
v 0.80000 0.28858 0.18000
vn 0.00000 0.96194 -0.19134
v -0.80000 0.28858 0.12260
v -0.80000 0.30000 0.12260
v 0.80000 0.30000 0.18000
vn 0.00000 0.96194 -0.19134
v 0.80000 0.15000 0.18000
v 0.80000 0.28858 0.18000
v 0.80000 0.30000 0.18000
vn 1.00000 0.00000 0.00000
v -0.80000 0.15000 0.18000
v -0.80000 0.30000 0.18000
v -0.80000 0.28858 0.12260
vn -1.00000 0.00000 0.00000
v -0.80000 0.30000 -0.18000
v 0.80000 0.28858 -0.12260
v 0.80000 0.30000 -0.12260
vn 0.00000 0.96194 0.19134
v -0.80000 0.30000 -0.18000
v -0.80000 0.28858 -0.18000
v 0.80000 0.28858 -0.12260
vn 0.00000 0.96194 0.19134
v 0.80000 0.15000 -0.18000
v 0.80000 0.30000 -0.12260
v 0.80000 0.28858 -0.12260
vn 1.00000 0.00000 0.00000
v -0.80000 0.15000 -0.18000
v -0.80000 0.28858 -0.12260
v -0.80000 0.30000 -0.18000
vn -1.00000 0.00000 0.00000
v -0.80000 0.28858 -0.12260
v 0.80000 0.25607 -0.07393
v 0.80000 0.28858 -0.07393
vn 0.00000 0.81549 0.54490
v -0.80000 0.28858 -0.12260
v -0.80000 0.25607 -0.12260
v 0.80000 0.25607 -0.07393
vn 0.00000 0.81549 0.54490
v 0.80000 0.15000 -0.18000
v 0.80000 0.28858 -0.07393
v 0.80000 0.25607 -0.07393
vn 1.00000 0.00000 0.00000
v -0.80000 0.15000 -0.18000
v -0.80000 0.25607 -0.07393
v -0.80000 0.28858 -0.12260
vn -1.00000 0.00000 0.00000
v -0.80000 0.25607 -0.07393
v 0.80000 0.20740 -0.04142
v 0.80000 0.25607 -0.04142
vn 0.00000 0.54490 0.81549
v -0.80000 0.25607 -0.07393
v -0.80000 0.20740 -0.07393
v 0.80000 0.20740 -0.04142
vn 0.00000 0.54490 0.81549
v 0.80000 0.15000 -0.18000
v 0.80000 0.25607 -0.04142
v 0.80000 0.20740 -0.04142
vn 1.00000 0.00000 0.00000
v -0.80000 0.15000 -0.18000
v -0.80000 0.20740 -0.04142
v -0.80000 0.25607 -0.07393
vn -1.00000 0.00000 0.00000
v -0.80000 0.20740 -0.04142
v 0.80000 0.15000 -0.03000
v 0.80000 0.20740 -0.03000
vn 0.00000 0.19134 0.96194
v -0.80000 0.20740 -0.04142
v -0.80000 0.15000 -0.04142
v 0.80000 0.15000 -0.03000
vn 0.00000 0.19134 0.96194
v 0.80000 0.15000 -0.18000
v 0.80000 0.20740 -0.03000
v 0.80000 0.15000 -0.03000
vn 1.00000 0.00000 0.00000
v -0.80000 0.15000 -0.18000
v -0.80000 0.15000 -0.03000
v -0.80000 0.20740 -0.04142
vn -1.00000 0.00000 0.00000
v -0.80000 0.15000 -0.03000
v 0.80000 0.09260 -0.04142
v 0.80000 0.15000 -0.04142
vn 0.00000 -0.19134 0.96194
v -0.80000 0.15000 -0.03000
v -0.80000 0.09260 -0.03000
v 0.80000 0.09260 -0.04142
vn 0.00000 -0.19134 0.96194
v 0.80000 0.15000 -0.18000
v 0.80000 0.15000 -0.04142
v 0.80000 0.09260 -0.04142
vn 1.00000 0.00000 0.00000
v -0.80000 0.15000 -0.18000
v -0.80000 0.09260 -0.04142
v -0.80000 0.15000 -0.03000
vn -1.00000 0.00000 0.00000
v -0.80000 0.09260 -0.04142
v 0.80000 0.04393 -0.07393
v 0.80000 0.09260 -0.07393
vn 0.00000 -0.54490 0.81549
v -0.80000 0.09260 -0.04142
v -0.80000 0.04393 -0.04142
v 0.80000 0.04393 -0.07393
vn 0.00000 -0.54490 0.81549
v 0.80000 0.15000 -0.18000
v 0.80000 0.09260 -0.07393
v 0.80000 0.04393 -0.07393
vn 1.00000 0.00000 0.00000
v -0.80000 0.15000 -0.18000
v -0.80000 0.04393 -0.07393
v -0.80000 0.09260 -0.04142
vn -1.00000 0.00000 0.00000
v -0.80000 0.04393 -0.07393
v 0.80000 0.01142 -0.12260
v 0.80000 0.04393 -0.12260
vn 0.00000 -0.81549 0.54490
v -0.80000 0.04393 -0.07393
v -0.80000 0.01142 -0.07393
v 0.80000 0.01142 -0.12260
vn 0.00000 -0.81549 0.54490
v 0.80000 0.15000 -0.18000
v 0.80000 0.04393 -0.12260
v 0.80000 0.01142 -0.12260
vn 1.00000 0.00000 0.00000
v -0.80000 0.15000 -0.18000
v -0.80000 0.01142 -0.12260
v -0.80000 0.04393 -0.07393
vn -1.00000 0.00000 0.00000
v -0.80000 0.01142 -0.12260
v 0.80000 0.00000 -0.18000
v 0.80000 0.01142 -0.18000
vn 0.00000 -0.96194 0.19134
v -0.80000 0.01142 -0.12260
v -0.80000 0.00000 -0.12260
v 0.80000 0.00000 -0.18000
vn 0.00000 -0.96194 0.19134
v 0.80000 0.15000 -0.18000
v 0.80000 0.01142 -0.18000
v 0.80000 0.00000 -0.18000
vn 1.00000 0.00000 0.00000
v -0.80000 0.15000 -0.18000
v -0.80000 0.00000 -0.18000
v -0.80000 0.01142 -0.12260
vn -1.00000 0.00000 0.00000
v -0.80000 0.00000 -0.18000
v 0.80000 0.01142 -0.23740
v 0.80000 0.00000 -0.23740
vn 0.00000 -0.96194 -0.19134
v -0.80000 0.00000 -0.18000
v -0.80000 0.01142 -0.18000
v 0.80000 0.01142 -0.23740
vn 0.00000 -0.96194 -0.19134
v 0.80000 0.15000 -0.18000
v 0.80000 0.00000 -0.23740
v 0.80000 0.01142 -0.23740
vn 1.00000 0.00000 0.00000
v -0.80000 0.15000 -0.18000
v -0.80000 0.01142 -0.23740
v -0.80000 0.00000 -0.18000
vn -1.00000 0.00000 0.00000
v -0.80000 0.01142 -0.23740
v 0.80000 0.04393 -0.28607
v 0.80000 0.01142 -0.28607
vn 0.00000 -0.81549 -0.54490
v -0.80000 0.01142 -0.23740
v -0.80000 0.04393 -0.23740
v 0.80000 0.04393 -0.28607
vn 0.00000 -0.81549 -0.54490
v 0.80000 0.15000 -0.18000
v 0.80000 0.01142 -0.28607
v 0.80000 0.04393 -0.28607
vn 1.00000 0.00000 0.00000
v -0.80000 0.15000 -0.18000
v -0.80000 0.04393 -0.28607
v -0.80000 0.01142 -0.23740
vn -1.00000 0.00000 0.00000
v -0.80000 0.04393 -0.28607
v 0.80000 0.09260 -0.31858
v 0.80000 0.04393 -0.31858
vn 0.00000 -0.54490 -0.81549
v -0.80000 0.04393 -0.28607
v -0.80000 0.09260 -0.28607
v 0.80000 0.09260 -0.31858
vn 0.00000 -0.54490 -0.81549
v 0.80000 0.15000 -0.18000
v 0.80000 0.04393 -0.31858
v 0.80000 0.09260 -0.31858
vn 1.00000 0.00000 0.00000
v -0.80000 0.15000 -0.18000
v -0.80000 0.09260 -0.31858
v -0.80000 0.04393 -0.28607
vn -1.00000 0.00000 0.00000
v -0.80000 0.09260 -0.31858
v 0.80000 0.15000 -0.33000
v 0.80000 0.09260 -0.33000
vn 0.00000 -0.19134 -0.96194
v -0.80000 0.09260 -0.31858
v -0.80000 0.15000 -0.31858
v 0.80000 0.15000 -0.33000
vn 0.00000 -0.19134 -0.96194
v 0.80000 0.15000 -0.18000
v 0.80000 0.09260 -0.33000
v 0.80000 0.15000 -0.33000
vn 1.00000 0.00000 0.00000
v -0.80000 0.15000 -0.18000
v -0.80000 0.15000 -0.33000
v -0.80000 0.09260 -0.31858
vn -1.00000 0.00000 0.00000
v -0.80000 0.15000 -0.33000
v 0.80000 0.20740 -0.31858
v 0.80000 0.15000 -0.31858
vn 0.00000 0.19134 -0.96194
v -0.80000 0.15000 -0.33000
v -0.80000 0.20740 -0.33000
v 0.80000 0.20740 -0.31858
vn 0.00000 0.19134 -0.96194
v 0.80000 0.15000 -0.18000
v 0.80000 0.15000 -0.31858
v 0.80000 0.20740 -0.31858
vn 1.00000 0.00000 0.00000
v -0.80000 0.15000 -0.18000
v -0.80000 0.20740 -0.31858
v -0.80000 0.15000 -0.33000
vn -1.00000 0.00000 0.00000
v -0.80000 0.20740 -0.31858
v 0.80000 0.25607 -0.28607
v 0.80000 0.20740 -0.28607
vn 0.00000 0.54490 -0.81549
v -0.80000 0.20740 -0.31858
v -0.80000 0.25607 -0.31858
v 0.80000 0.25607 -0.28607
vn 0.00000 0.54490 -0.81549
v 0.80000 0.15000 -0.18000
v 0.80000 0.20740 -0.28607
v 0.80000 0.25607 -0.28607
vn 1.00000 0.00000 0.00000
v -0.80000 0.15000 -0.18000
v -0.80000 0.25607 -0.28607
v -0.80000 0.20740 -0.31858
vn -1.00000 0.00000 0.00000
v -0.80000 0.25607 -0.28607
v 0.80000 0.28858 -0.23740
v 0.80000 0.25607 -0.23740
vn 0.00000 0.81549 -0.54490
v -0.80000 0.25607 -0.28607
v -0.80000 0.28858 -0.28607
v 0.80000 0.28858 -0.23740
vn 0.00000 0.81549 -0.54490
v 0.80000 0.15000 -0.18000
v 0.80000 0.25607 -0.23740
v 0.80000 0.28858 -0.23740
vn 1.00000 0.00000 0.00000
v -0.80000 0.15000 -0.18000
v -0.80000 0.28858 -0.23740
v -0.80000 0.25607 -0.28607
vn -1.00000 0.00000 0.00000
v -0.80000 0.28858 -0.23740
v 0.80000 0.30000 -0.18000
v 0.80000 0.28858 -0.18000
vn 0.00000 0.96194 -0.19134
v -0.80000 0.28858 -0.23740
v -0.80000 0.30000 -0.23740
v 0.80000 0.30000 -0.18000
vn 0.00000 0.96194 -0.19134
v 0.80000 0.15000 -0.18000
v 0.80000 0.28858 -0.18000
v 0.80000 0.30000 -0.18000
vn 1.00000 0.00000 0.00000
v -0.80000 0.15000 -0.18000
v -0.80000 0.30000 -0.18000
v -0.80000 0.28858 -0.23740
vn -1.00000 0.00000 0.00000
v -0.80000 0.57000 0.00000
v 0.80000 0.55858 0.05740
v 0.80000 0.57000 0.05740
vn 0.00000 0.96194 0.19134
v -0.80000 0.57000 0.00000
v -0.80000 0.55858 0.00000
v 0.80000 0.55858 0.05740
vn 0.00000 0.96194 0.19134
v 0.80000 0.42000 0.00000
v 0.80000 0.57000 0.05740
v 0.80000 0.55858 0.05740
vn 1.00000 0.00000 0.00000
v -0.80000 0.42000 0.00000
v -0.80000 0.55858 0.05740
v -0.80000 0.57000 0.00000
vn -1.00000 0.00000 0.00000
v -0.80000 0.55858 0.05740
v 0.80000 0.52607 0.10607
v 0.80000 0.55858 0.10607
vn 0.00000 0.81549 0.54490
v -0.80000 0.55858 0.05740
v -0.80000 0.52607 0.05740
v 0.80000 0.52607 0.10607
vn 0.00000 0.81549 0.54490
v 0.80000 0.42000 0.00000
v 0.80000 0.55858 0.10607
v 0.80000 0.52607 0.10607
vn 1.00000 0.00000 0.00000
v -0.80000 0.42000 0.00000
v -0.80000 0.52607 0.10607
v -0.80000 0.55858 0.05740
vn -1.00000 0.00000 0.00000
v -0.80000 0.52607 0.10607
v 0.80000 0.47740 0.13858
v 0.80000 0.52607 0.13858
vn 0.00000 0.54490 0.81549
v -0.80000 0.52607 0.10607
v -0.80000 0.47740 0.10607
v 0.80000 0.47740 0.13858
vn 0.00000 0.54490 0.81549
v 0.80000 0.42000 0.00000
v 0.80000 0.52607 0.13858
v 0.80000 0.47740 0.13858
vn 1.00000 0.00000 0.00000
v -0.80000 0.42000 0.00000
v -0.80000 0.47740 0.13858
v -0.80000 0.52607 0.10607
vn -1.00000 0.00000 0.00000
v -0.80000 0.47740 0.13858
v 0.80000 0.42000 0.15000
v 0.80000 0.47740 0.15000
vn 0.00000 0.19134 0.96194
v -0.80000 0.47740 0.13858
v -0.80000 0.42000 0.13858
v 0.80000 0.42000 0.15000
vn 0.00000 0.19134 0.96194
v 0.80000 0.42000 0.00000
v 0.80000 0.47740 0.15000
v 0.80000 0.42000 0.15000
vn 1.00000 0.00000 0.00000
v -0.80000 0.42000 0.00000
v -0.80000 0.42000 0.15000
v -0.80000 0.47740 0.13858
vn -1.00000 0.00000 0.00000
v -0.80000 0.42000 0.15000
v 0.80000 0.36260 0.13858
v 0.80000 0.42000 0.13858
vn 0.00000 -0.19134 0.96194
v -0.80000 0.42000 0.15000
v -0.80000 0.36260 0.15000
v 0.80000 0.36260 0.13858
vn 0.00000 -0.19134 0.96194
v 0.80000 0.42000 0.00000
v 0.80000 0.42000 0.13858
v 0.80000 0.36260 0.13858
vn 1.00000 0.00000 0.00000
v -0.80000 0.42000 0.00000
v -0.80000 0.36260 0.13858
v -0.80000 0.42000 0.15000
vn -1.00000 0.00000 0.00000
v -0.80000 0.36260 0.13858
v 0.80000 0.31393 0.10607
v 0.80000 0.36260 0.10607
vn 0.00000 -0.54490 0.81549
v -0.80000 0.36260 0.13858
v -0.80000 0.31393 0.13858
v 0.80000 0.31393 0.10607
vn 0.00000 -0.54490 0.81549
v 0.80000 0.42000 0.00000
v 0.80000 0.36260 0.10607
v 0.80000 0.31393 0.10607
vn 1.00000 0.00000 0.00000
v -0.80000 0.42000 0.00000
v -0.80000 0.31393 0.10607
v -0.80000 0.36260 0.13858
vn -1.00000 0.00000 0.00000
v -0.80000 0.31393 0.10607
v 0.80000 0.28142 0.05740
v 0.80000 0.31393 0.05740
vn 0.00000 -0.81549 0.54490
v -0.80000 0.31393 0.10607
v -0.80000 0.28142 0.10607
v 0.80000 0.28142 0.05740
vn 0.00000 -0.81549 0.54490
v 0.80000 0.42000 0.00000
v 0.80000 0.31393 0.05740
v 0.80000 0.28142 0.05740
vn 1.00000 0.00000 0.00000
v -0.80000 0.42000 0.00000
v -0.80000 0.28142 0.05740
v -0.80000 0.31393 0.10607
vn -1.00000 0.00000 0.00000
v -0.80000 0.28142 0.05740
v 0.80000 0.27000 0.00000
v 0.80000 0.28142 0.00000
vn 0.00000 -0.96194 0.19134
v -0.80000 0.28142 0.05740
v -0.80000 0.27000 0.05740
v 0.80000 0.27000 0.00000
vn 0.00000 -0.96194 0.19134
v 0.80000 0.42000 0.00000
v 0.80000 0.28142 0.00000
v 0.80000 0.27000 0.00000
vn 1.00000 0.00000 0.00000
v -0.80000 0.42000 0.00000
v -0.80000 0.27000 0.00000
v -0.80000 0.28142 0.05740
vn -1.00000 0.00000 0.00000
v -0.80000 0.27000 0.00000
v 0.80000 0.28142 -0.05740
v 0.80000 0.27000 -0.05740
vn 0.00000 -0.96194 -0.19134
v -0.80000 0.27000 0.00000
v -0.80000 0.28142 0.00000
v 0.80000 0.28142 -0.05740
vn 0.00000 -0.96194 -0.19134
v 0.80000 0.42000 0.00000
v 0.80000 0.27000 -0.05740
v 0.80000 0.28142 -0.05740
vn 1.00000 0.00000 0.00000
v -0.80000 0.42000 0.00000
v -0.80000 0.28142 -0.05740
v -0.80000 0.27000 0.00000
vn -1.00000 0.00000 0.00000
v -0.80000 0.28142 -0.05740
v 0.80000 0.31393 -0.10607
v 0.80000 0.28142 -0.10607
vn 0.00000 -0.81549 -0.54490
v -0.80000 0.28142 -0.05740
v -0.80000 0.31393 -0.05740
v 0.80000 0.31393 -0.10607
vn 0.00000 -0.81549 -0.54490
v 0.80000 0.42000 0.00000
v 0.80000 0.28142 -0.10607
v 0.80000 0.31393 -0.10607
vn 1.00000 0.00000 0.00000
v -0.80000 0.42000 0.00000
v -0.80000 0.31393 -0.10607
v -0.80000 0.28142 -0.05740
vn -1.00000 0.00000 0.00000
v -0.80000 0.31393 -0.10607
v 0.80000 0.36260 -0.13858
v 0.80000 0.31393 -0.13858
vn 0.00000 -0.54490 -0.81549
v -0.80000 0.31393 -0.10607
v -0.80000 0.36260 -0.10607
v 0.80000 0.36260 -0.13858
vn 0.00000 -0.54490 -0.81549
v 0.80000 0.42000 0.00000
v 0.80000 0.31393 -0.13858
v 0.80000 0.36260 -0.13858
vn 1.00000 0.00000 0.00000
v -0.80000 0.42000 0.00000
v -0.80000 0.36260 -0.13858
v -0.80000 0.31393 -0.10607
vn -1.00000 0.00000 0.00000
v -0.80000 0.36260 -0.13858
v 0.80000 0.42000 -0.15000
v 0.80000 0.36260 -0.15000
vn 0.00000 -0.19134 -0.96194
v -0.80000 0.36260 -0.13858
v -0.80000 0.42000 -0.13858
v 0.80000 0.42000 -0.15000
vn 0.00000 -0.19134 -0.96194
v 0.80000 0.42000 0.00000
v 0.80000 0.36260 -0.15000
v 0.80000 0.42000 -0.15000
vn 1.00000 0.00000 0.00000
v -0.80000 0.42000 0.00000
v -0.80000 0.42000 -0.15000
v -0.80000 0.36260 -0.13858
vn -1.00000 0.00000 0.00000
v -0.80000 0.42000 -0.15000
v 0.80000 0.47740 -0.13858
v 0.80000 0.42000 -0.13858
vn 0.00000 0.19134 -0.96194
v -0.80000 0.42000 -0.15000
v -0.80000 0.47740 -0.15000
v 0.80000 0.47740 -0.13858
vn 0.00000 0.19134 -0.96194
v 0.80000 0.42000 0.00000
v 0.80000 0.42000 -0.13858
v 0.80000 0.47740 -0.13858
vn 1.00000 0.00000 0.00000
v -0.80000 0.42000 0.00000
v -0.80000 0.47740 -0.13858
v -0.80000 0.42000 -0.15000
vn -1.00000 0.00000 0.00000
v -0.80000 0.47740 -0.13858
v 0.80000 0.52607 -0.10607
v 0.80000 0.47740 -0.10607
vn 0.00000 0.54490 -0.81549
v -0.80000 0.47740 -0.13858
v -0.80000 0.52607 -0.13858
v 0.80000 0.52607 -0.10607
vn 0.00000 0.54490 -0.81549
v 0.80000 0.42000 0.00000
v 0.80000 0.47740 -0.10607
v 0.80000 0.52607 -0.10607
vn 1.00000 0.00000 0.00000
v -0.80000 0.42000 0.00000
v -0.80000 0.52607 -0.10607
v -0.80000 0.47740 -0.13858
vn -1.00000 0.00000 0.00000
v -0.80000 0.52607 -0.10607
v 0.80000 0.55858 -0.05740
v 0.80000 0.52607 -0.05740
vn 0.00000 0.81549 -0.54490
v -0.80000 0.52607 -0.10607
v -0.80000 0.55858 -0.10607
v 0.80000 0.55858 -0.05740
vn 0.00000 0.81549 -0.54490
v 0.80000 0.42000 0.00000
v 0.80000 0.52607 -0.05740
v 0.80000 0.55858 -0.05740
vn 1.00000 0.00000 0.00000
v -0.80000 0.42000 0.00000
v -0.80000 0.55858 -0.05740
v -0.80000 0.52607 -0.10607
vn -1.00000 0.00000 0.00000
v -0.80000 0.55858 -0.05740
v 0.80000 0.57000 -0.00000
v 0.80000 0.55858 -0.00000
vn 0.00000 0.96194 -0.19134
v -0.80000 0.55858 -0.05740
v -0.80000 0.57000 -0.05740
v 0.80000 0.57000 -0.00000
vn 0.00000 0.96194 -0.19134
v 0.80000 0.42000 0.00000
v 0.80000 0.55858 -0.00000
v 0.80000 0.57000 -0.00000
vn 1.00000 0.00000 0.00000
v -0.80000 0.42000 0.00000
v -0.80000 0.57000 -0.00000
v -0.80000 0.55858 -0.05740
vn -1.00000 0.00000 0.00000
f 1/7/1 2/7/1 3/7/1
f 4/7/2 5/7/2 6/7/2
f 7/5/3 8/5/3 9/5/3
f 10/5/4 11/5/4 12/5/4
f 13/7/5 14/7/5 15/7/5
f 16/7/6 17/7/6 18/7/6
f 19/5/7 20/5/7 21/5/7
f 22/5/8 23/5/8 24/5/8
f 25/7/9 26/7/9 27/7/9
f 28/7/10 29/7/10 30/7/10
f 31/5/11 32/5/11 33/5/11
f 34/5/12 35/5/12 36/5/12
f 37/7/13 38/7/13 39/7/13
f 40/7/14 41/7/14 42/7/14
f 43/5/15 44/5/15 45/5/15
f 46/5/16 47/5/16 48/5/16
f 49/7/17 50/7/17 51/7/17
f 52/7/18 53/7/18 54/7/18
f 55/5/19 56/5/19 57/5/19
f 58/5/20 59/5/20 60/5/20
f 61/7/21 62/7/21 63/7/21
f 64/7/22 65/7/22 66/7/22
f 67/5/23 68/5/23 69/5/23
f 70/5/24 71/5/24 72/5/24
f 73/7/25 74/7/25 75/7/25
f 76/7/26 77/7/26 78/7/26
f 79/5/27 80/5/27 81/5/27
f 82/5/28 83/5/28 84/5/28
f 85/7/29 86/7/29 87/7/29
f 88/7/30 89/7/30 90/7/30
f 91/5/31 92/5/31 93/5/31
f 94/5/32 95/5/32 96/5/32
f 97/7/33 98/7/33 99/7/33
f 100/7/34 101/7/34 102/7/34
f 103/5/35 104/5/35 105/5/35
f 106/5/36 107/5/36 108/5/36
f 109/7/37 110/7/37 111/7/37
f 112/7/38 113/7/38 114/7/38
f 115/5/39 116/5/39 117/5/39
f 118/5/40 119/5/40 120/5/40
f 121/7/41 122/7/41 123/7/41
f 124/7/42 125/7/42 126/7/42
f 127/5/43 128/5/43 129/5/43
f 130/5/44 131/5/44 132/5/44
f 133/7/45 134/7/45 135/7/45
f 136/7/46 137/7/46 138/7/46
f 139/5/47 140/5/47 141/5/47
f 142/5/48 143/5/48 144/5/48
f 145/7/49 146/7/49 147/7/49
f 148/7/50 149/7/50 150/7/50
f 151/5/51 152/5/51 153/5/51
f 154/5/52 155/5/52 156/5/52
f 157/7/53 158/7/53 159/7/53
f 160/7/54 161/7/54 162/7/54
f 163/5/55 164/5/55 165/5/55
f 166/5/56 167/5/56 168/5/56
f 169/7/57 170/7/57 171/7/57
f 172/7/58 173/7/58 174/7/58
f 175/5/59 176/5/59 177/5/59
f 178/5/60 179/5/60 180/5/60
f 181/7/61 182/7/61 183/7/61
f 184/7/62 185/7/62 186/7/62
f 187/5/63 188/5/63 189/5/63
f 190/5/64 191/5/64 192/5/64
f 193/7/65 194/7/65 195/7/65
f 196/7/66 197/7/66 198/7/66
f 199/5/67 200/5/67 201/5/67
f 202/5/68 203/5/68 204/5/68
f 205/7/69 206/7/69 207/7/69
f 208/7/70 209/7/70 210/7/70
f 211/5/71 212/5/71 213/5/71
f 214/5/72 215/5/72 216/5/72
f 217/7/73 218/7/73 219/7/73
f 220/7/74 221/7/74 222/7/74
f 223/5/75 224/5/75 225/5/75
f 226/5/76 227/5/76 228/5/76
f 229/7/77 230/7/77 231/7/77
f 232/7/78 233/7/78 234/7/78
f 235/5/79 236/5/79 237/5/79
f 238/5/80 239/5/80 240/5/80
f 241/7/81 242/7/81 243/7/81
f 244/7/82 245/7/82 246/7/82
f 247/5/83 248/5/83 249/5/83
f 250/5/84 251/5/84 252/5/84
f 253/7/85 254/7/85 255/7/85
f 256/7/86 257/7/86 258/7/86
f 259/5/87 260/5/87 261/5/87
f 262/5/88 263/5/88 264/5/88
f 265/7/89 266/7/89 267/7/89
f 268/7/90 269/7/90 270/7/90
f 271/5/91 272/5/91 273/5/91
f 274/5/92 275/5/92 276/5/92
f 277/7/93 278/7/93 279/7/93
f 280/7/94 281/7/94 282/7/94
f 283/5/95 284/5/95 285/5/95
f 286/5/96 287/5/96 288/5/96
f 289/7/97 290/7/97 291/7/97
f 292/7/98 293/7/98 294/7/98
f 295/5/99 296/5/99 297/5/99
f 298/5/100 299/5/100 300/5/100
f 301/7/101 302/7/101 303/7/101
f 304/7/102 305/7/102 306/7/102
f 307/5/103 308/5/103 309/5/103
f 310/5/104 311/5/104 312/5/104
f 313/7/105 314/7/105 315/7/105
f 316/7/106 317/7/106 318/7/106
f 319/5/107 320/5/107 321/5/107
f 322/5/108 323/5/108 324/5/108
f 325/7/109 326/7/109 327/7/109
f 328/7/110 329/7/110 330/7/110
f 331/5/111 332/5/111 333/5/111
f 334/5/112 335/5/112 336/5/112
f 337/7/113 338/7/113 339/7/113
f 340/7/114 341/7/114 342/7/114
f 343/5/115 344/5/115 345/5/115
f 346/5/116 347/5/116 348/5/116
f 349/7/117 350/7/117 351/7/117
f 352/7/118 353/7/118 354/7/118
f 355/5/119 356/5/119 357/5/119
f 358/5/120 359/5/120 360/5/120
f 361/7/121 362/7/121 363/7/121
f 364/7/122 365/7/122 366/7/122
f 367/5/123 368/5/123 369/5/123
f 370/5/124 371/5/124 372/5/124
f 373/7/125 374/7/125 375/7/125
f 376/7/126 377/7/126 378/7/126
f 379/5/127 380/5/127 381/5/127
f 382/5/128 383/5/128 384/5/128
f 385/7/129 386/7/129 387/7/129
f 388/7/130 389/7/130 390/7/130
f 391/5/131 392/5/131 393/5/131
f 394/5/132 395/5/132 396/5/132
f 397/7/133 398/7/133 399/7/133
f 400/7/134 401/7/134 402/7/134
f 403/5/135 404/5/135 405/5/135
f 406/5/136 407/5/136 408/5/136
f 409/7/137 410/7/137 411/7/137
f 412/7/138 413/7/138 414/7/138
f 415/5/139 416/5/139 417/5/139
f 418/5/140 419/5/140 420/5/140
f 421/7/141 422/7/141 423/7/141
f 424/7/142 425/7/142 426/7/142
f 427/5/143 428/5/143 429/5/143
f 430/5/144 431/5/144 432/5/144
f 433/7/145 434/7/145 435/7/145
f 436/7/146 437/7/146 438/7/146
f 439/5/147 440/5/147 441/5/147
f 442/5/148 443/5/148 444/5/148
f 445/7/149 446/7/149 447/7/149
f 448/7/150 449/7/150 450/7/150
f 451/5/151 452/5/151 453/5/151
f 454/5/152 455/5/152 456/5/152
f 457/7/153 458/7/153 459/7/153
f 460/7/154 461/7/154 462/7/154
f 463/5/155 464/5/155 465/5/155
f 466/5/156 467/5/156 468/5/156
f 469/7/157 470/7/157 471/7/157
f 472/7/158 473/7/158 474/7/158
f 475/5/159 476/5/159 477/5/159
f 478/5/160 479/5/160 480/5/160
f 481/7/161 482/7/161 483/7/161
f 484/7/162 485/7/162 486/7/162
f 487/5/163 488/5/163 489/5/163
f 490/5/164 491/5/164 492/5/164
f 493/7/165 494/7/165 495/7/165
f 496/7/166 497/7/166 498/7/166
f 499/5/167 500/5/167 501/5/167
f 502/5/168 503/5/168 504/5/168
f 505/7/169 506/7/169 507/7/169
f 508/7/170 509/7/170 510/7/170
f 511/5/171 512/5/171 513/5/171
f 514/5/172 515/5/172 516/5/172
f 517/7/173 518/7/173 519/7/173
f 520/7/174 521/7/174 522/7/174
f 523/5/175 524/5/175 525/5/175
f 526/5/176 527/5/176 528/5/176
f 529/7/177 530/7/177 531/7/177
f 532/7/178 533/7/178 534/7/178
f 535/5/179 536/5/179 537/5/179
f 538/5/180 539/5/180 540/5/180
f 541/7/181 542/7/181 543/7/181
f 544/7/182 545/7/182 546/7/182
f 547/5/183 548/5/183 549/5/183
f 550/5/184 551/5/184 552/5/184
f 553/7/185 554/7/185 555/7/185
f 556/7/186 557/7/186 558/7/186
f 559/5/187 560/5/187 561/5/187
f 562/5/188 563/5/188 564/5/188
f 565/7/189 566/7/189 567/7/189
f 568/7/190 569/7/190 570/7/190
f 571/5/191 572/5/191 573/5/191
f 574/5/192 575/5/192 576/5/192
