# generated mesh
vt 0.03125 0.50000
vt 0.09375 0.50000
vt 0.15625 0.50000
vt 0.21875 0.50000
vt 0.28125 0.50000
vt 0.34375 0.50000
vt 0.40625 0.50000
vt 0.46875 0.50000
vt 0.53125 0.50000
vt 0.59375 0.50000
vt 0.65625 0.50000
vt 0.71875 0.50000
vt 0.78125 0.50000
vt 0.84375 0.50000
vt 0.90625 0.50000
vt 0.96875 0.50000
v -0.35000 0.00000 0.35000
v 0.35000 0.00000 0.35000
v 0.35000 1.10000 0.35000
vn 0.00000 0.00000 1.00000
v -0.35000 0.00000 0.35000
v 0.35000 1.10000 0.35000
v -0.35000 1.10000 0.35000
vn 0.00000 0.00000 1.00000
v 0.35000 0.00000 -0.35000
v -0.35000 0.00000 -0.35000
v -0.35000 1.10000 -0.35000
vn 0.00000 0.00000 -1.00000
v 0.35000 0.00000 -0.35000
v -0.35000 1.10000 -0.35000
v 0.35000 1.10000 -0.35000
vn 0.00000 0.00000 -1.00000
v 0.35000 0.00000 0.35000
v 0.35000 0.00000 -0.35000
v 0.35000 1.10000 -0.35000
vn 1.00000 0.00000 0.00000
v 0.35000 0.00000 0.35000
v 0.35000 1.10000 -0.35000
v 0.35000 1.10000 0.35000
vn 1.00000 0.00000 0.00000
v -0.35000 0.00000 -0.35000
v -0.35000 0.00000 0.35000
v -0.35000 1.10000 0.35000
vn -1.00000 0.00000 0.00000
v -0.35000 0.00000 -0.35000
v -0.35000 1.10000 0.35000
v -0.35000 1.10000 -0.35000
vn -1.00000 0.00000 0.00000
v -0.35000 1.10000 0.35000
v 0.35000 1.10000 0.35000
v 0.35000 1.10000 -0.35000
vn 0.00000 1.00000 0.00000
v -0.35000 1.10000 0.35000
v 0.35000 1.10000 -0.35000
v -0.35000 1.10000 -0.35000
vn 0.00000 1.00000 0.00000
v -0.35000 0.00000 -0.35000
v 0.35000 0.00000 -0.35000
v 0.35000 0.00000 0.35000
vn 0.00000 -1.00000 0.00000
v -0.35000 0.00000 -0.35000
v 0.35000 0.00000 0.35000
v -0.35000 0.00000 0.35000
vn 0.00000 -1.00000 0.00000
v -0.30000 1.10000 0.30000
v 0.30000 1.10000 0.30000
v 0.30000 1.45000 0.30000
vn 0.00000 0.00000 1.00000
v -0.30000 1.10000 0.30000
v 0.30000 1.45000 0.30000
v -0.30000 1.45000 0.30000
vn 0.00000 0.00000 1.00000
v 0.30000 1.10000 -0.30000
v -0.30000 1.10000 -0.30000
v -0.30000 1.45000 -0.30000
vn 0.00000 0.00000 -1.00000
v 0.30000 1.10000 -0.30000
v -0.30000 1.45000 -0.30000
v 0.30000 1.45000 -0.30000
vn 0.00000 0.00000 -1.00000
v 0.30000 1.10000 0.30000
v 0.30000 1.10000 -0.30000
v 0.30000 1.45000 -0.30000
vn 1.00000 0.00000 0.00000
v 0.30000 1.10000 0.30000
v 0.30000 1.45000 -0.30000
v 0.30000 1.45000 0.30000
vn 1.00000 0.00000 0.00000
v -0.30000 1.10000 -0.30000
v -0.30000 1.10000 0.30000
v -0.30000 1.45000 0.30000
vn -1.00000 0.00000 0.00000
v -0.30000 1.10000 -0.30000
v -0.30000 1.45000 0.30000
v -0.30000 1.45000 -0.30000
vn -1.00000 0.00000 0.00000
v -0.30000 1.45000 0.30000
v 0.30000 1.45000 0.30000
v 0.30000 1.45000 -0.30000
vn 0.00000 1.00000 0.00000
v -0.30000 1.45000 0.30000
v 0.30000 1.45000 -0.30000
v -0.30000 1.45000 -0.30000
vn 0.00000 1.00000 0.00000
v -0.30000 1.10000 -0.30000
v 0.30000 1.10000 -0.30000
v 0.30000 1.10000 0.30000
vn 0.00000 -1.00000 0.00000
v -0.30000 1.10000 -0.30000
v 0.30000 1.10000 0.30000
v -0.30000 1.10000 0.30000
vn 0.00000 -1.00000 0.00000
v 0.30000 0.50000 0.05000
v 0.50000 0.50000 0.05000
v 0.50000 0.60000 0.05000
vn 0.00000 0.00000 1.00000
v 0.30000 0.50000 0.05000
v 0.50000 0.60000 0.05000
v 0.30000 0.60000 0.05000
vn 0.00000 0.00000 1.00000
v 0.50000 0.50000 -0.05000
v 0.30000 0.50000 -0.05000
v 0.30000 0.60000 -0.05000
vn 0.00000 0.00000 -1.00000
v 0.50000 0.50000 -0.05000
v 0.30000 0.60000 -0.05000
v 0.50000 0.60000 -0.05000
vn 0.00000 0.00000 -1.00000
v 0.50000 0.50000 0.05000
v 0.50000 0.50000 -0.05000
v 0.50000 0.60000 -0.05000
vn 1.00000 0.00000 0.00000
v 0.50000 0.50000 0.05000
v 0.50000 0.60000 -0.05000
v 0.50000 0.60000 0.05000
vn 1.00000 0.00000 0.00000
v 0.30000 0.50000 -0.05000
v 0.30000 0.50000 0.05000
v 0.30000 0.60000 0.05000
vn -1.00000 0.00000 0.00000
v 0.30000 0.50000 -0.05000
v 0.30000 0.60000 0.05000
v 0.30000 0.60000 -0.05000
vn -1.00000 0.00000 0.00000
v 0.30000 0.60000 0.05000
v 0.50000 0.60000 0.05000
v 0.50000 0.60000 -0.05000
vn 0.00000 1.00000 0.00000
v 0.30000 0.60000 0.05000
v 0.50000 0.60000 -0.05000
v 0.30000 0.60000 -0.05000
vn 0.00000 1.00000 0.00000
v 0.30000 0.50000 -0.05000
v 0.50000 0.50000 -0.05000
v 0.50000 0.50000 0.05000
vn 0.00000 -1.00000 0.00000
v 0.30000 0.50000 -0.05000
v 0.50000 0.50000 0.05000
v 0.30000 0.50000 0.05000
vn 0.00000 -1.00000 0.00000
f 1/15/1 2/15/1 3/15/1
f 4/15/2 5/15/2 6/15/2
f 7/15/3 8/15/3 9/15/3
f 10/15/4 11/15/4 12/15/4
f 13/15/5 14/15/5 15/15/5
f 16/15/6 17/15/6 18/15/6
f 19/15/7 20/15/7 21/15/7
f 22/15/8 23/15/8 24/15/8
f 25/15/9 26/15/9 27/15/9
f 28/15/10 29/15/10 30/15/10
f 31/15/11 32/15/11 33/15/11
f 34/15/12 35/15/12 36/15/12
f 37/11/13 38/11/13 39/11/13
f 40/11/14 41/11/14 42/11/14
f 43/11/15 44/11/15 45/11/15
f 46/11/16 47/11/16 48/11/16
f 49/11/17 50/11/17 51/11/17
f 52/11/18 53/11/18 54/11/18
f 55/11/19 56/11/19 57/11/19
f 58/11/20 59/11/20 60/11/20
f 61/11/21 62/11/21 63/11/21
f 64/11/22 65/11/22 66/11/22
f 67/11/23 68/11/23 69/11/23
f 70/11/24 71/11/24 72/11/24
f 73/11/25 74/11/25 75/11/25
f 76/11/26 77/11/26 78/11/26
f 79/11/27 80/11/27 81/11/27
f 82/11/28 83/11/28 84/11/28
f 85/11/29 86/11/29 87/11/29
f 88/11/30 89/11/30 90/11/30
f 91/11/31 92/11/31 93/11/31
f 94/11/32 95/11/32 96/11/32
f 97/11/33 98/11/33 99/11/33
f 100/11/34 101/11/34 102/11/34
f 103/11/35 104/11/35 105/11/35
f 106/11/36 107/11/36 108/11/36
