# generated mesh
vt 0.03125 0.50000
vt 0.09375 0.50000
vt 0.15625 0.50000
vt 0.21875 0.50000
vt 0.28125 0.50000
vt 0.34375 0.50000
vt 0.40625 0.50000
vt 0.46875 0.50000
vt 0.53125 0.50000
vt 0.59375 0.50000
vt 0.65625 0.50000
vt 0.71875 0.50000
vt 0.78125 0.50000
vt 0.84375 0.50000
vt 0.90625 0.50000
vt 0.96875 0.50000
v -0.40000 0.00000 0.40000
v 0.40000 0.00000 0.40000
v 0.40000 0.06000 0.40000
vn 0.00000 0.00000 1.00000
v -0.40000 0.00000 0.40000
v 0.40000 0.06000 0.40000
v -0.40000 0.06000 0.40000
vn 0.00000 0.00000 1.00000
v 0.40000 0.00000 -0.40000
v -0.40000 0.00000 -0.40000
v -0.40000 0.06000 -0.40000
vn 0.00000 0.00000 -1.00000
v 0.40000 0.00000 -0.40000
v -0.40000 0.06000 -0.40000
v 0.40000 0.06000 -0.40000
vn 0.00000 0.00000 -1.00000
v 0.40000 0.00000 0.40000
v 0.40000 0.00000 -0.40000
v 0.40000 0.06000 -0.40000
vn 1.00000 0.00000 0.00000
v 0.40000 0.00000 0.40000
v 0.40000 0.06000 -0.40000
v 0.40000 0.06000 0.40000
vn 1.00000 0.00000 0.00000
v -0.40000 0.00000 -0.40000
v -0.40000 0.00000 0.40000
v -0.40000 0.06000 0.40000
vn -1.00000 0.00000 0.00000
v -0.40000 0.00000 -0.40000
v -0.40000 0.06000 0.40000
v -0.40000 0.06000 -0.40000
vn -1.00000 0.00000 0.00000
v -0.40000 0.06000 0.40000
v 0.40000 0.06000 0.40000
v 0.40000 0.06000 -0.40000
vn 0.00000 1.00000 0.00000
v -0.40000 0.06000 0.40000
v 0.40000 0.06000 -0.40000
v -0.40000 0.06000 -0.40000
vn 0.00000 1.00000 0.00000
v -0.40000 0.00000 -0.40000
v 0.40000 0.00000 -0.40000
v 0.40000 0.00000 0.40000
vn 0.00000 -1.00000 0.00000
v -0.40000 0.00000 -0.40000
v 0.40000 0.00000 0.40000
v -0.40000 0.00000 0.40000
vn 0.00000 -1.00000 0.00000
v -0.39000 0.06000 0.40000
v -0.33000 0.06000 0.40000
v -0.33000 0.16000 0.40000
vn 0.00000 0.00000 1.00000
v -0.39000 0.06000 0.40000
v -0.33000 0.16000 0.40000
v -0.39000 0.16000 0.40000
vn 0.00000 0.00000 1.00000
v -0.33000 0.06000 -0.40000
v -0.39000 0.06000 -0.40000
v -0.39000 0.16000 -0.40000
vn 0.00000 0.00000 -1.00000
v -0.33000 0.06000 -0.40000
v -0.39000 0.16000 -0.40000
v -0.33000 0.16000 -0.40000
vn 0.00000 0.00000 -1.00000
v -0.33000 0.06000 0.40000
v -0.33000 0.06000 -0.40000
v -0.33000 0.16000 -0.40000
vn 1.00000 0.00000 0.00000
v -0.33000 0.06000 0.40000
v -0.33000 0.16000 -0.40000
v -0.33000 0.16000 0.40000
vn 1.00000 0.00000 0.00000
v -0.39000 0.06000 -0.40000
v -0.39000 0.06000 0.40000
v -0.39000 0.16000 0.40000
vn -1.00000 0.00000 0.00000
v -0.39000 0.06000 -0.40000
v -0.39000 0.16000 0.40000
v -0.39000 0.16000 -0.40000
vn -1.00000 0.00000 0.00000
v -0.39000 0.16000 0.40000
v -0.33000 0.16000 0.40000
v -0.33000 0.16000 -0.40000
vn 0.00000 1.00000 0.00000
v -0.39000 0.16000 0.40000
v -0.33000 0.16000 -0.40000
v -0.39000 0.16000 -0.40000
vn 0.00000 1.00000 0.00000
v -0.39000 0.06000 -0.40000
v -0.33000 0.06000 -0.40000
v -0.33000 0.06000 0.40000
vn 0.00000 -1.00000 0.00000
v -0.39000 0.06000 -0.40000
v -0.33000 0.06000 0.40000
v -0.39000 0.06000 0.40000
vn 0.00000 -1.00000 0.00000
v 0.33000 0.06000 0.40000
v 0.39000 0.06000 0.40000
v 0.39000 0.16000 0.40000
vn 0.00000 0.00000 1.00000
v 0.33000 0.06000 0.40000
v 0.39000 0.16000 0.40000
v 0.33000 0.16000 0.40000
vn 0.00000 0.00000 1.00000
v 0.39000 0.06000 -0.40000
v 0.33000 0.06000 -0.40000
v 0.33000 0.16000 -0.40000
vn 0.00000 0.00000 -1.00000
v 0.39000 0.06000 -0.40000
v 0.33000 0.16000 -0.40000
v 0.39000 0.16000 -0.40000
vn 0.00000 0.00000 -1.00000
v 0.39000 0.06000 0.40000
v 0.39000 0.06000 -0.40000
v 0.39000 0.16000 -0.40000
vn 1.00000 0.00000 0.00000
v 0.39000 0.06000 0.40000
v 0.39000 0.16000 -0.40000
v 0.39000 0.16000 0.40000
vn 1.00000 0.00000 0.00000
v 0.33000 0.06000 -0.40000
v 0.33000 0.06000 0.40000
v 0.33000 0.16000 0.40000
vn -1.00000 0.00000 0.00000
v 0.33000 0.06000 -0.40000
v 0.33000 0.16000 0.40000
v 0.33000 0.16000 -0.40000
vn -1.00000 0.00000 0.00000
v 0.33000 0.16000 0.40000
v 0.39000 0.16000 0.40000
v 0.39000 0.16000 -0.40000
vn 0.00000 1.00000 0.00000
v 0.33000 0.16000 0.40000
v 0.39000 0.16000 -0.40000
v 0.33000 0.16000 -0.40000
vn 0.00000 1.00000 0.00000
v 0.33000 0.06000 -0.40000
v 0.39000 0.06000 -0.40000
v 0.39000 0.06000 0.40000
vn 0.00000 -1.00000 0.00000
v 0.33000 0.06000 -0.40000
v 0.39000 0.06000 0.40000
v 0.33000 0.06000 0.40000
vn 0.00000 -1.00000 0.00000
f 1/11/1 2/11/1 3/11/1
f 4/11/2 5/11/2 6/11/2
f 7/11/3 8/11/3 9/11/3
f 10/11/4 11/11/4 12/11/4
f 13/11/5 14/11/5 15/11/5
f 16/11/6 17/11/6 18/11/6
f 19/11/7 20/11/7 21/11/7
f 22/11/8 23/11/8 24/11/8
f 25/11/9 26/11/9 27/11/9
f 28/11/10 29/11/10 30/11/10
f 31/11/11 32/11/11 33/11/11
f 34/11/12 35/11/12 36/11/12
f 37/11/13 38/11/13 39/11/13
f 40/11/14 41/11/14 42/11/14
f 43/11/15 44/11/15 45/11/15
f 46/11/16 47/11/16 48/11/16
f 49/11/17 50/11/17 51/11/17
f 52/11/18 53/11/18 54/11/18
f 55/11/19 56/11/19 57/11/19
f 58/11/20 59/11/20 60/11/20
f 61/11/21 62/11/21 63/11/21
f 64/11/22 65/11/22 66/11/22
f 67/11/23 68/11/23 69/11/23
f 70/11/24 71/11/24 72/11/24
f 73/11/25 74/11/25 75/11/25
f 76/11/26 77/11/26 78/11/26
f 79/11/27 80/11/27 81/11/27
f 82/11/28 83/11/28 84/11/28
f 85/11/29 86/11/29 87/11/29
f 88/11/30 89/11/30 90/11/30
f 91/11/31 92/11/31 93/11/31
f 94/11/32 95/11/32 96/11/32
f 97/11/33 98/11/33 99/11/33
f 100/11/34 101/11/34 102/11/34
f 103/11/35 104/11/35 105/11/35
f 106/11/36 107/11/36 108/11/36
